<svg xmlns="http://www.w3.org/2000/svg" viewBox="0 0 1100 760"><defs><style>text{font-family:Segoe UI,Arial,sans-serif}.title{font-weight:800}</style><linearGradient id="sea" x1="0" y1="0" x2="0" y2="1"><stop offset="0" stop-color="#123d57"/><stop offset="1" stop-color="#071d30"/></linearGradient></defs><rect width="100%" height="100%" fill="#06101a"/><rect x="45" y="70" width="1010" height="605" rx="20" fill="url(#sea)" stroke="#2a5e7f"/><text x="550" y="36" fill="#f4fbff" font-size="25" text-anchor="middle" class="title">1. Training Bay</text><text x="550" y="60" fill="#8fb6cc" font-size="13" text-anchor="middle">A quick shakedown in the shallows. Barely any resistance.</text><line x1="550" y1="169.81132075471697" x2="550" y2="580.1886792452831" stroke="#eaf7ff" stroke-opacity=".18" stroke-dasharray="9 10" stroke-width="3"/><ellipse cx="550.0" cy="153.4" rx="34.8" ry="25.2" fill="#ff766d" stroke="#efffdc" stroke-width="2" opacity=".92" transform="rotate(-56.1 550.0 153.4)"/><rect x="516.0" y="145.4" width="68" height="16" rx="8" fill="#cc332d" stroke="#fff" stroke-width="1"/><text x="550.0" y="192.6" fill="#d7edf7" font-size="10" text-anchor="middle">Northwatch</text><ellipse cx="550.0" cy="596.6" rx="33.5" ry="24.2" fill="#65d6ff" stroke="#efffdc" stroke-width="2" opacity=".92" transform="rotate(-13.9 550.0 596.6)"/><rect x="516.0" y="588.6" width="68" height="16" rx="8" fill="#128dcc" stroke="#fff" stroke-width="1"/><text x="550.0" y="634.8" fill="#d7edf7" font-size="10" text-anchor="middle">Southhaven</text><ellipse cx="511.2" cy="355.8" rx="24.2" ry="10.8" fill="#cf755f" stroke="#efffdc" stroke-width="1" opacity=".92" transform="rotate(-41.0 511.2 355.8)"/><ellipse cx="589.7" cy="399.6" rx="21.8" ry="9.7" fill="#79c969" stroke="#efffdc" stroke-width="1" opacity=".92" transform="rotate(-28.4 589.7 399.6)"/><text x="70" y="715" fill="#ffd060" font-size="15">Ships 2 enemy / 4 allied · Islands 2 · CLEAR · Ground 25% INF / 25% TANKS</text></svg>