<svg xmlns="http://www.w3.org/2000/svg" viewBox="0 0 1100 760"><defs><style>text{font-family:Segoe UI,Arial,sans-serif}.title{font-weight:800}</style><linearGradient id="sea" x1="0" y1="0" x2="0" y2="1"><stop offset="0" stop-color="#123d57"/><stop offset="1" stop-color="#071d30"/></linearGradient></defs><rect width="100%" height="100%" fill="#06101a"/><rect x="45" y="70" width="1010" height="605" rx="20" fill="url(#sea)" stroke="#2a5e7f"/><text x="550" y="36" fill="#f4fbff" font-size="25" text-anchor="middle" class="title">2. The Landing</text><text x="550" y="60" fill="#8fb6cc" font-size="13" text-anchor="middle">Pure land assault — no enemy fleet. Beach your tanks and take every island.</text><line x1="550" y1="174.00990099009903" x2="550" y2="575.990099009901" stroke="#eaf7ff" stroke-opacity=".18" stroke-dasharray="9 10" stroke-width="3"/><ellipse cx="550.0" cy="156.8" rx="34.8" ry="25.2" fill="#ff766d" stroke="#efffdc" stroke-width="2" opacity=".92" transform="rotate(-23.8 550.0 156.8)"/><rect x="516.0" y="148.8" width="68" height="16" rx="8" fill="#cc332d" stroke="#fff" stroke-width="1"/><text x="550.0" y="196.0" fill="#d7edf7" font-size="10" text-anchor="middle">Northwatch</text><ellipse cx="550.0" cy="593.2" rx="33.5" ry="24.2" fill="#65d6ff" stroke="#efffdc" stroke-width="2" opacity=".92" transform="rotate(15.8 550.0 593.2)"/><rect x="516.0" y="585.2" width="68" height="16" rx="8" fill="#128dcc" stroke="#fff" stroke-width="1"/><text x="550.0" y="631.4" fill="#d7edf7" font-size="10" text-anchor="middle">Southhaven</text><ellipse cx="533.4" cy="225.7" rx="69.5" ry="31.0" fill="#cf755f" stroke="#efffdc" stroke-width="1" opacity=".92" transform="rotate(-19.3 533.4 225.7)"/><circle cx="533.4" cy="225.7" r="7.1" fill="#2f5a30" opacity=".55"/><text x="533.4" y="270.7" fill="#d7edf7" font-size="10" text-anchor="middle">Red Beach</text><ellipse cx="577.7" cy="283.1" rx="80.8" ry="36.0" fill="#cf755f" stroke="#efffdc" stroke-width="1" opacity=".92" transform="rotate(-9.3 577.7 283.1)"/><circle cx="577.7" cy="283.1" r="8.3" fill="#2f5a30" opacity=".55"/><text x="577.7" y="333.1" fill="#d7edf7" font-size="10" text-anchor="middle">Duneside</text><ellipse cx="526.0" cy="343.4" rx="90.5" ry="40.3" fill="#cf755f" stroke="#efffdc" stroke-width="1" opacity=".92" transform="rotate(-9.5 526.0 343.4)"/><circle cx="526.0" cy="343.4" r="9.3" fill="#2f5a30" opacity=".55"/><text x="526.0" y="397.7" fill="#d7edf7" font-size="10" text-anchor="middle">Landing Fields</text><ellipse cx="573.1" cy="418.1" rx="84.0" ry="37.4" fill="#79c969" stroke="#efffdc" stroke-width="1" opacity=".92" transform="rotate(2.4 573.1 418.1)"/><circle cx="573.1" cy="418.1" r="8.6" fill="#2f5a30" opacity=".55"/><text x="573.1" y="469.5" fill="#d7edf7" font-size="10" text-anchor="middle">Tank Plain</text><ellipse cx="533.4" cy="487.0" rx="74.3" ry="33.1" fill="#79c969" stroke="#efffdc" stroke-width="1" opacity=".92" transform="rotate(4.3 533.4 487.0)"/><circle cx="533.4" cy="487.0" r="7.6" fill="#2f5a30" opacity=".55"/><text x="533.4" y="534.1" fill="#d7edf7" font-size="10" text-anchor="middle">South Approach</text><ellipse cx="588.8" cy="530.0" rx="58.2" ry="25.9" fill="#79c969" stroke="#efffdc" stroke-width="1" opacity=".92" transform="rotate(14.2 588.8 530.0)"/><circle cx="588.8" cy="530.0" r="6.0" fill="#2f5a30" opacity=".55"/><text x="588.8" y="570.0" fill="#d7edf7" font-size="10" text-anchor="middle">Supply Bluff</text><rect x="64" y="88" width="104" height="24" rx="12" fill="#31562b" stroke="#8ee884"/><text x="116" y="105" fill="#d9ffd5" font-size="12" text-anchor="middle" font-weight="700">GROUND WAR</text><text x="70" y="715" fill="#ffd060" font-size="15">Ships 0 enemy / 3 allied · Islands 6 · CLEAR · Ground 235% INF / 220% TANKS</text></svg>