<svg xmlns="http://www.w3.org/2000/svg" viewBox="0 0 1100 760"><defs><style>text{font-family:Segoe UI,Arial,sans-serif}.title{font-weight:800}</style><linearGradient id="sea" x1="0" y1="0" x2="0" y2="1"><stop offset="0" stop-color="#123d57"/><stop offset="1" stop-color="#071d30"/></linearGradient></defs><rect width="100%" height="100%" fill="#06101a"/><rect x="45" y="70" width="1010" height="605" rx="20" fill="url(#sea)" stroke="#2a5e7f"/><text x="550" y="36" fill="#f4fbff" font-size="25" text-anchor="middle" class="title">3. Coastal Skirmish</text><text x="550" y="60" fill="#8fb6cc" font-size="13" text-anchor="middle">A short, sharp fight in tight waters.</text><line x1="550" y1="144.53642384105962" x2="550" y2="605.4635761589404" stroke="#eaf7ff" stroke-opacity=".18" stroke-dasharray="9 10" stroke-width="3"/><ellipse cx="550.0" cy="133.0" rx="34.8" ry="25.2" fill="#ff766d" stroke="#efffdc" stroke-width="2" opacity=".92" transform="rotate(-5.8 550.0 133.0)"/><rect x="516.0" y="125.0" width="68" height="16" rx="8" fill="#cc332d" stroke="#fff" stroke-width="1"/><text x="550.0" y="172.2" fill="#d7edf7" font-size="10" text-anchor="middle">Northwatch</text><ellipse cx="550.0" cy="617.0" rx="33.5" ry="24.2" fill="#65d6ff" stroke="#efffdc" stroke-width="2" opacity=".92" transform="rotate(-10.2 550.0 617.0)"/><rect x="516.0" y="609.0" width="68" height="16" rx="8" fill="#128dcc" stroke="#fff" stroke-width="1"/><text x="550.0" y="655.2" fill="#d7edf7" font-size="10" text-anchor="middle">Southhaven</text><ellipse cx="459.5" cy="315.5" rx="42.0" ry="18.7" fill="#cf755f" stroke="#efffdc" stroke-width="1" opacity=".92" transform="rotate(9.1 459.5 315.5)"/><ellipse cx="620.2" cy="378.8" rx="38.8" ry="17.3" fill="#79c969" stroke="#efffdc" stroke-width="1" opacity=".92" transform="rotate(-34.9 620.2 378.8)"/><ellipse cx="502.0" cy="449.9" rx="35.5" ry="15.8" fill="#79c969" stroke="#efffdc" stroke-width="1" opacity=".92" transform="rotate(31.9 502.0 449.9)"/><text x="70" y="715" fill="#ffd060" font-size="15">Ships 3 enemy / 4 allied · Islands 3 · CLEAR · Ground 43% INF / 40% TANKS</text></svg>