<svg xmlns="http://www.w3.org/2000/svg" viewBox="0 0 1100 760"><defs><style>text{font-family:Segoe UI,Arial,sans-serif}.title{font-weight:800}</style><linearGradient id="sea" x1="0" y1="0" x2="0" y2="1"><stop offset="0" stop-color="#123d57"/><stop offset="1" stop-color="#071d30"/></linearGradient></defs><rect width="100%" height="100%" fill="#06101a"/><rect x="45" y="70" width="1010" height="605" rx="20" fill="url(#sea)" stroke="#2a5e7f"/><text x="550" y="36" fill="#f4fbff" font-size="25" text-anchor="middle" class="title">4. Southhaven Shoals</text><text x="550" y="60" fill="#8fb6cc" font-size="13" text-anchor="middle">Home waters — calm seas, a green fleet to blood.</text><line x1="550" y1="120.81673306772907" x2="550" y2="629.183266932271" stroke="#eaf7ff" stroke-opacity=".18" stroke-dasharray="9 10" stroke-width="3"/><ellipse cx="550.0" cy="113.9" rx="34.8" ry="25.2" fill="#ff766d" stroke="#efffdc" stroke-width="2" opacity=".92" transform="rotate(-0.8 550.0 113.9)"/><rect x="516.0" y="105.9" width="68" height="16" rx="8" fill="#cc332d" stroke="#fff" stroke-width="1"/><text x="550.0" y="153.1" fill="#d7edf7" font-size="10" text-anchor="middle">Northwatch</text><ellipse cx="550.0" cy="636.1" rx="33.5" ry="24.2" fill="#65d6ff" stroke="#efffdc" stroke-width="2" opacity=".92" transform="rotate(-23.2 550.0 636.1)"/><rect x="516.0" y="628.1" width="68" height="16" rx="8" fill="#128dcc" stroke="#fff" stroke-width="1"/><text x="550.0" y="674.3" fill="#d7edf7" font-size="10" text-anchor="middle">Southhaven</text><ellipse cx="618.1" cy="179.0" rx="51.8" ry="23.1" fill="#cf755f" stroke="#efffdc" stroke-width="1" opacity=".92" transform="rotate(21.3 618.1 179.0)"/><circle cx="618.1" cy="179.0" r="5.3" fill="#2f5a30" opacity=".55"/><text x="618.1" y="216.1" fill="#d7edf7" font-size="10" text-anchor="middle">Skull Reef</text><ellipse cx="480.7" cy="293.8" rx="48.0" ry="21.4" fill="#cf755f" stroke="#efffdc" stroke-width="1" opacity=".92" transform="rotate(32.2 480.7 293.8)"/><circle cx="480.7" cy="293.8" r="4.9" fill="#2f5a30" opacity=".55"/><ellipse cx="708.4" cy="376.0" rx="41.1" ry="18.3" fill="#79c969" stroke="#efffdc" stroke-width="1" opacity=".92" transform="rotate(5.4 708.4 376.0)"/><ellipse cx="336.9" cy="481.6" rx="50.5" ry="22.5" fill="#79c969" stroke="#efffdc" stroke-width="1" opacity=".92" transform="rotate(-11.1 336.9 481.6)"/><circle cx="336.9" cy="481.6" r="5.2" fill="#2f5a30" opacity=".55"/><ellipse cx="779.0" cy="568.5" rx="57.9" ry="25.8" fill="#79c969" stroke="#efffdc" stroke-width="1" opacity=".92" transform="rotate(-13.6 779.0 568.5)"/><circle cx="779.0" cy="568.5" r="6.0" fill="#2f5a30" opacity=".55"/><text x="779.0" y="608.3" fill="#d7edf7" font-size="10" text-anchor="middle">Broken Mast</text><text x="70" y="715" fill="#ffd060" font-size="15">Ships 5 enemy / 5 allied · Islands 5 · CLEAR · Ground 53% INF / 48% TANKS</text></svg>