<svg xmlns="http://www.w3.org/2000/svg" viewBox="0 0 1100 760"><defs><style>text{font-family:Segoe UI,Arial,sans-serif}.title{font-weight:800}</style><linearGradient id="sea" x1="0" y1="0" x2="0" y2="1"><stop offset="0" stop-color="#123d57"/><stop offset="1" stop-color="#071d30"/></linearGradient></defs><rect width="100%" height="100%" fill="#06101a"/><rect x="45" y="70" width="1010" height="605" rx="20" fill="url(#sea)" stroke="#2a5e7f"/><text x="550" y="36" fill="#f4fbff" font-size="25" text-anchor="middle" class="title">5. The Broken Reef</text><text x="550" y="60" fill="#8fb6cc" font-size="13" text-anchor="middle">A dense archipelago. Brutal island-by-island fighting.</text><line x1="550" y1="120.81673306772907" x2="550" y2="629.183266932271" stroke="#eaf7ff" stroke-opacity=".18" stroke-dasharray="9 10" stroke-width="3"/><ellipse cx="550.0" cy="113.9" rx="34.8" ry="25.2" fill="#ff766d" stroke="#efffdc" stroke-width="2" opacity=".92" transform="rotate(30.2 550.0 113.9)"/><rect x="516.0" y="105.9" width="68" height="16" rx="8" fill="#cc332d" stroke="#fff" stroke-width="1"/><text x="550.0" y="153.1" fill="#d7edf7" font-size="10" text-anchor="middle">Northwatch</text><ellipse cx="550.0" cy="636.1" rx="33.5" ry="24.2" fill="#65d6ff" stroke="#efffdc" stroke-width="2" opacity=".92" transform="rotate(7.8 550.0 636.1)"/><rect x="516.0" y="628.1" width="68" height="16" rx="8" fill="#128dcc" stroke="#fff" stroke-width="1"/><text x="550.0" y="674.3" fill="#d7edf7" font-size="10" text-anchor="middle">Southhaven</text><ellipse cx="760.6" cy="178.9" rx="56.0" ry="25.0" fill="#cf755f" stroke="#efffdc" stroke-width="1" opacity=".92" transform="rotate(-2.3 760.6 178.9)"/><circle cx="760.6" cy="178.9" r="5.8" fill="#2f5a30" opacity=".55"/><text x="760.6" y="217.9" fill="#d7edf7" font-size="10" text-anchor="middle">Skull Reef</text><ellipse cx="457.5" cy="248.3" rx="49.0" ry="21.8" fill="#cf755f" stroke="#efffdc" stroke-width="1" opacity=".92" transform="rotate(-19.5 457.5 248.3)"/><circle cx="457.5" cy="248.3" r="5.0" fill="#2f5a30" opacity=".55"/><ellipse cx="743.9" cy="297.9" rx="40.1" ry="17.9" fill="#cf755f" stroke="#efffdc" stroke-width="1" opacity=".92" transform="rotate(22.6 743.9 297.9)"/><ellipse cx="431.2" cy="389.9" rx="50.4" ry="22.5" fill="#79c969" stroke="#efffdc" stroke-width="1" opacity=".92" transform="rotate(9.5 431.2 389.9)"/><circle cx="431.2" cy="389.9" r="5.2" fill="#2f5a30" opacity=".55"/><ellipse cx="632.4" cy="442.5" rx="51.8" ry="23.1" fill="#79c969" stroke="#efffdc" stroke-width="1" opacity=".92" transform="rotate(-26.9 632.4 442.5)"/><circle cx="632.4" cy="442.5" r="5.3" fill="#2f5a30" opacity=".55"/><text x="632.4" y="479.6" fill="#d7edf7" font-size="10" text-anchor="middle">Broken Mast</text><ellipse cx="364.0" cy="492.3" rx="51.1" ry="22.8" fill="#79c969" stroke="#efffdc" stroke-width="1" opacity=".92" transform="rotate(25.3 364.0 492.3)"/><circle cx="364.0" cy="492.3" r="5.3" fill="#2f5a30" opacity=".55"/><ellipse cx="723.8" cy="570.8" rx="47.5" ry="21.2" fill="#79c969" stroke="#efffdc" stroke-width="1" opacity=".92" transform="rotate(11.9 723.8 570.8)"/><circle cx="723.8" cy="570.8" r="4.9" fill="#2f5a30" opacity=".55"/><text x="70" y="715" fill="#ffd060" font-size="15">Ships 6 enemy / 5 allied · Islands 7 · CLEAR · Ground 62% INF / 57% TANKS</text></svg>