<svg xmlns="http://www.w3.org/2000/svg" viewBox="0 0 1100 760"><defs><style>text{font-family:Segoe UI,Arial,sans-serif}.title{font-weight:800}</style><linearGradient id="sea" x1="0" y1="0" x2="0" y2="1"><stop offset="0" stop-color="#123d57"/><stop offset="1" stop-color="#071d30"/></linearGradient></defs><rect width="100%" height="100%" fill="#06101a"/><rect x="45" y="70" width="1010" height="605" rx="20" fill="url(#sea)" stroke="#2a5e7f"/><text x="550" y="36" fill="#f4fbff" font-size="25" text-anchor="middle" class="title">6. Iron Straits</text><text x="550" y="60" fill="#8fb6cc" font-size="13" text-anchor="middle">A narrow, storm-lashed channel. Nowhere to run.</text><line x1="550" y1="120.81673306772907" x2="550" y2="629.183266932271" stroke="#eaf7ff" stroke-opacity=".18" stroke-dasharray="9 10" stroke-width="3"/><ellipse cx="550.0" cy="113.9" rx="34.8" ry="25.2" fill="#ff766d" stroke="#efffdc" stroke-width="2" opacity=".92" transform="rotate(-8.8 550.0 113.9)"/><rect x="516.0" y="105.9" width="68" height="16" rx="8" fill="#cc332d" stroke="#fff" stroke-width="1"/><text x="550.0" y="153.1" fill="#d7edf7" font-size="10" text-anchor="middle">Northwatch</text><ellipse cx="550.0" cy="636.1" rx="33.5" ry="24.2" fill="#65d6ff" stroke="#efffdc" stroke-width="2" opacity=".92" transform="rotate(-31.2 550.0 636.1)"/><rect x="516.0" y="628.1" width="68" height="16" rx="8" fill="#128dcc" stroke="#fff" stroke-width="1"/><text x="550.0" y="674.3" fill="#d7edf7" font-size="10" text-anchor="middle">Southhaven</text><ellipse cx="479.8" cy="295.3" rx="84.0" ry="37.4" fill="#cf755f" stroke="#efffdc" stroke-width="1" opacity=".92" transform="rotate(24.5 479.8 295.3)"/><circle cx="479.8" cy="295.3" r="8.6" fill="#2f5a30" opacity=".55"/><text x="479.8" y="346.7" fill="#d7edf7" font-size="10" text-anchor="middle">West Gate</text><ellipse cx="620.2" cy="306.8" rx="84.0" ry="37.4" fill="#cf755f" stroke="#efffdc" stroke-width="1" opacity=".92" transform="rotate(-27.7 620.2 306.8)"/><circle cx="620.2" cy="306.8" r="8.6" fill="#2f5a30" opacity=".55"/><text x="620.2" y="358.3" fill="#d7edf7" font-size="10" text-anchor="middle">East Gate</text><ellipse cx="490.9" cy="399.3" rx="80.8" ry="36.0" fill="#79c969" stroke="#efffdc" stroke-width="1" opacity=".92" transform="rotate(-20.9 490.9 399.3)"/><circle cx="490.9" cy="399.3" r="8.3" fill="#2f5a30" opacity=".55"/><text x="490.9" y="449.3" fill="#d7edf7" font-size="10" text-anchor="middle">Narrows West</text><ellipse cx="614.6" cy="412.5" rx="80.8" ry="36.0" fill="#79c969" stroke="#efffdc" stroke-width="1" opacity=".92" transform="rotate(-4.6 614.6 412.5)"/><circle cx="614.6" cy="412.5" r="8.3" fill="#2f5a30" opacity=".55"/><text x="614.6" y="462.5" fill="#d7edf7" font-size="10" text-anchor="middle">Narrows East</text><text x="1020" y="110" fill="#ffd060" font-size="30" text-anchor="middle">⚓</text><text x="70" y="715" fill="#ffd060" font-size="15">Ships 7 enemy / 5 allied · Islands 4 · STORM · Ground 77% INF / 70% TANKS</text></svg>