<svg xmlns="http://www.w3.org/2000/svg" viewBox="0 0 1100 760"><defs><style>text{font-family:Segoe UI,Arial,sans-serif}.title{font-weight:800}</style><linearGradient id="sea" x1="0" y1="0" x2="0" y2="1"><stop offset="0" stop-color="#123d57"/><stop offset="1" stop-color="#071d30"/></linearGradient></defs><rect width="100%" height="100%" fill="#06101a"/><rect x="45" y="70" width="1010" height="605" rx="20" fill="url(#sea)" stroke="#2a5e7f"/><text x="550" y="36" fill="#f4fbff" font-size="25" text-anchor="middle" class="title">8. Fogbound Marches</text><text x="550" y="60" fill="#8fb6cc" font-size="13" text-anchor="middle">Blind sensors. Radar and sonar are everything.</text><line x1="550" y1="120.81673306772907" x2="550" y2="629.183266932271" stroke="#eaf7ff" stroke-opacity=".18" stroke-dasharray="9 10" stroke-width="3"/><ellipse cx="550.0" cy="113.9" rx="34.8" ry="25.2" fill="#ff766d" stroke="#efffdc" stroke-width="2" opacity=".92" transform="rotate(-16.8 550.0 113.9)"/><rect x="516.0" y="105.9" width="68" height="16" rx="8" fill="#cc332d" stroke="#fff" stroke-width="1"/><text x="550.0" y="153.1" fill="#d7edf7" font-size="10" text-anchor="middle">Northwatch</text><ellipse cx="550.0" cy="636.1" rx="33.5" ry="24.2" fill="#65d6ff" stroke="#efffdc" stroke-width="2" opacity=".92" transform="rotate(30.8 550.0 636.1)"/><rect x="516.0" y="628.1" width="68" height="16" rx="8" fill="#128dcc" stroke="#fff" stroke-width="1"/><text x="550.0" y="674.3" fill="#d7edf7" font-size="10" text-anchor="middle">Southhaven</text><ellipse cx="416.2" cy="285.5" rx="54.9" ry="24.5" fill="#cf755f" stroke="#efffdc" stroke-width="1" opacity=".92" transform="rotate(7.3 416.2 285.5)"/><circle cx="416.2" cy="285.5" r="5.6" fill="#2f5a30" opacity=".55"/><text x="416.2" y="323.9" fill="#d7edf7" font-size="10" text-anchor="middle">Blind Reef</text><ellipse cx="681.1" cy="310.3" rx="48.5" ry="21.6" fill="#cf755f" stroke="#efffdc" stroke-width="1" opacity=".92" transform="rotate(-28.4 681.1 310.3)"/><circle cx="681.1" cy="310.3" r="5.0" fill="#2f5a30" opacity=".55"/><ellipse cx="526.9" cy="354.2" rx="84.0" ry="37.4" fill="#cf755f" stroke="#efffdc" stroke-width="1" opacity=".92" transform="rotate(34.8 526.9 354.2)"/><circle cx="526.9" cy="354.2" r="8.6" fill="#2f5a30" opacity=".55"/><text x="526.9" y="405.6" fill="#d7edf7" font-size="10" text-anchor="middle">Radar Hill</text><ellipse cx="666.3" cy="410.2" rx="48.5" ry="21.6" fill="#79c969" stroke="#efffdc" stroke-width="1" opacity=".92" transform="rotate(-7.5 666.3 410.2)"/><circle cx="666.3" cy="410.2" r="5.0" fill="#2f5a30" opacity=".55"/><ellipse cx="441.1" cy="458.8" rx="54.9" ry="24.5" fill="#79c969" stroke="#efffdc" stroke-width="1" opacity=".92" transform="rotate(-21.0 441.1 458.8)"/><circle cx="441.1" cy="458.8" r="5.6" fill="#2f5a30" opacity=".55"/><text x="441.1" y="497.2" fill="#d7edf7" font-size="10" text-anchor="middle">Sonar Bank</text><ellipse cx="581.4" cy="476.7" rx="43.6" ry="19.4" fill="#79c969" stroke="#efffdc" stroke-width="1" opacity=".92" transform="rotate(-1.7 581.4 476.7)"/><text x="1020" y="110" fill="#ffd060" font-size="30" text-anchor="middle">⚓</text><text x="70" y="715" fill="#ffd060" font-size="15">Ships 8 enemy / 6 allied · Islands 6 · FOG · Ground 96% INF / 89% TANKS</text></svg>