<svg xmlns="http://www.w3.org/2000/svg" viewBox="0 0 1100 760"><defs><style>text{font-family:Segoe UI,Arial,sans-serif}.title{font-weight:800}</style><linearGradient id="sea" x1="0" y1="0" x2="0" y2="1"><stop offset="0" stop-color="#123d57"/><stop offset="1" stop-color="#071d30"/></linearGradient></defs><rect width="100%" height="100%" fill="#06101a"/><rect x="45" y="70" width="1010" height="605" rx="20" fill="url(#sea)" stroke="#2a5e7f"/><text x="550" y="36" fill="#f4fbff" font-size="25" text-anchor="middle" class="title">9. Leviathan's Grave</text><text x="550" y="60" fill="#8fb6cc" font-size="13" text-anchor="middle">The enemy flagship yard. Bring the whole fleet.</text><line x1="550" y1="120.81673306772907" x2="550" y2="629.183266932271" stroke="#eaf7ff" stroke-opacity=".18" stroke-dasharray="9 10" stroke-width="3"/><ellipse cx="550.0" cy="113.9" rx="34.8" ry="25.2" fill="#ff766d" stroke="#efffdc" stroke-width="2" opacity=".92" transform="rotate(14.2 550.0 113.9)"/><rect x="516.0" y="105.9" width="68" height="16" rx="8" fill="#cc332d" stroke="#fff" stroke-width="1"/><text x="550.0" y="153.1" fill="#d7edf7" font-size="10" text-anchor="middle">Northwatch</text><ellipse cx="550.0" cy="636.1" rx="33.5" ry="24.2" fill="#65d6ff" stroke="#efffdc" stroke-width="2" opacity=".92" transform="rotate(-8.2 550.0 636.1)"/><rect x="516.0" y="628.1" width="68" height="16" rx="8" fill="#128dcc" stroke="#fff" stroke-width="1"/><text x="550.0" y="674.3" fill="#d7edf7" font-size="10" text-anchor="middle">Southhaven</text><ellipse cx="406.0" cy="282.6" rx="58.2" ry="25.9" fill="#cf755f" stroke="#efffdc" stroke-width="1" opacity=".92" transform="rotate(-33.4 406.0 282.6)"/><circle cx="406.0" cy="282.6" r="6.0" fill="#2f5a30" opacity=".55"/><text x="406.0" y="322.5" fill="#d7edf7" font-size="10" text-anchor="middle">Dry Dock West</text><ellipse cx="683.8" cy="290.7" rx="61.4" ry="27.4" fill="#cf755f" stroke="#efffdc" stroke-width="1" opacity=".92" transform="rotate(-1.5 683.8 290.7)"/><circle cx="683.8" cy="290.7" r="6.3" fill="#2f5a30" opacity=".55"/><text x="683.8" y="332.0" fill="#d7edf7" font-size="10" text-anchor="middle">Shipyard East</text><ellipse cx="516.8" cy="345.0" rx="105.0" ry="46.8" fill="#cf755f" stroke="#efffdc" stroke-width="1" opacity=".92" transform="rotate(-7.4 516.8 345.0)"/><circle cx="516.8" cy="345.0" r="10.8" fill="#2f5a30" opacity=".55"/><text x="516.8" y="405.8" fill="#d7edf7" font-size="10" text-anchor="middle">Graveyard</text><ellipse cx="657.1" cy="399.3" rx="54.9" ry="24.5" fill="#79c969" stroke="#efffdc" stroke-width="1" opacity=".92" transform="rotate(20.1 657.1 399.3)"/><circle cx="657.1" cy="399.3" r="5.6" fill="#2f5a30" opacity=".55"/><text x="657.1" y="437.7" fill="#d7edf7" font-size="10" text-anchor="middle">Anchorfall</text><ellipse cx="431.8" cy="454.7" rx="51.7" ry="23.0" fill="#79c969" stroke="#efffdc" stroke-width="1" opacity=".92" transform="rotate(8.1 431.8 454.7)"/><circle cx="431.8" cy="454.7" r="5.3" fill="#2f5a30" opacity=".55"/><ellipse cx="599.8" cy="467.4" rx="48.5" ry="21.6" fill="#79c969" stroke="#efffdc" stroke-width="1" opacity=".92" transform="rotate(29.2 599.8 467.4)"/><circle cx="599.8" cy="467.4" r="5.0" fill="#2f5a30" opacity=".55"/><text x="1020" y="110" fill="#ffd060" font-size="30" text-anchor="middle">⚓</text><text x="70" y="715" fill="#ffd060" font-size="15">Ships 8 enemy / 6 allied · Islands 6 · OVERCAST · Ground 106% INF / 98% TANKS</text></svg>