<svg xmlns="http://www.w3.org/2000/svg" viewBox="0 0 1100 760"><defs><style>text{font-family:Segoe UI,Arial,sans-serif}.title{font-weight:800}</style><linearGradient id="sea" x1="0" y1="0" x2="0" y2="1"><stop offset="0" stop-color="#123d57"/><stop offset="1" stop-color="#071d30"/></linearGradient></defs><rect width="100%" height="100%" fill="#06101a"/><rect x="45" y="70" width="1010" height="605" rx="20" fill="url(#sea)" stroke="#2a5e7f"/><text x="550" y="36" fill="#f4fbff" font-size="25" text-anchor="middle" class="title">10. Dawn Patrol</text><text x="550" y="60" fill="#8fb6cc" font-size="13" text-anchor="middle">First light over quiet water. It won’t stay quiet.</text><line x1="550" y1="127.60663507109004" x2="550" y2="622.3933649289099" stroke="#eaf7ff" stroke-opacity=".18" stroke-dasharray="9 10" stroke-width="3"/><ellipse cx="550.0" cy="119.4" rx="34.8" ry="25.2" fill="#ff766d" stroke="#efffdc" stroke-width="2" opacity=".92" transform="rotate(-14.4 550.0 119.4)"/><rect x="516.0" y="111.4" width="68" height="16" rx="8" fill="#cc332d" stroke="#fff" stroke-width="1"/><text x="550.0" y="158.6" fill="#d7edf7" font-size="10" text-anchor="middle">Northwatch</text><ellipse cx="550.0" cy="630.6" rx="33.5" ry="24.2" fill="#65d6ff" stroke="#efffdc" stroke-width="2" opacity=".92" transform="rotate(12.4 550.0 630.6)"/><rect x="516.0" y="622.6" width="68" height="16" rx="8" fill="#128dcc" stroke="#fff" stroke-width="1"/><text x="550.0" y="668.9" fill="#d7edf7" font-size="10" text-anchor="middle">Southhaven</text><ellipse cx="649.4" cy="172.9" rx="63.4" ry="28.2" fill="#cf755f" stroke="#efffdc" stroke-width="1" opacity=".92" transform="rotate(6.5 649.4 172.9)"/><circle cx="649.4" cy="172.9" r="6.5" fill="#2f5a30" opacity=".55"/><text x="649.4" y="215.1" fill="#d7edf7" font-size="10" text-anchor="middle">Skull Reef</text><ellipse cx="377.6" cy="275.3" rx="53.3" ry="23.8" fill="#cf755f" stroke="#efffdc" stroke-width="1" opacity=".92" transform="rotate(-3.5 377.6 275.3)"/><circle cx="377.6" cy="275.3" r="5.5" fill="#2f5a30" opacity=".55"/><text x="377.6" y="313.0" fill="#d7edf7" font-size="10" text-anchor="middle">Far Lantern</text><ellipse cx="744.3" cy="386.6" rx="52.7" ry="23.5" fill="#79c969" stroke="#efffdc" stroke-width="1" opacity=".92" transform="rotate(-12.8 744.3 386.6)"/><circle cx="744.3" cy="386.6" r="5.4" fill="#2f5a30" opacity=".55"/><text x="744.3" y="424.1" fill="#d7edf7" font-size="10" text-anchor="middle">Lowtide</text><ellipse cx="392.0" cy="478.6" rx="62.7" ry="27.9" fill="#79c969" stroke="#efffdc" stroke-width="1" opacity=".92" transform="rotate(-33.5 392.0 478.6)"/><circle cx="392.0" cy="478.6" r="6.4" fill="#2f5a30" opacity=".55"/><text x="392.0" y="520.5" fill="#d7edf7" font-size="10" text-anchor="middle">Pelican</text><ellipse cx="614.7" cy="545.2" rx="42.1" ry="18.8" fill="#79c969" stroke="#efffdc" stroke-width="1" opacity=".92" transform="rotate(3.2 614.7 545.2)"/><text x="70" y="715" fill="#ffd060" font-size="15">Ships 6 enemy / 5 allied · Islands 5 · CLEAR · Ground 108% INF / 99% TANKS</text></svg>