<svg xmlns="http://www.w3.org/2000/svg" viewBox="0 0 1100 760"><defs><style>text{font-family:Segoe UI,Arial,sans-serif}.title{font-weight:800}</style><linearGradient id="sea" x1="0" y1="0" x2="0" y2="1"><stop offset="0" stop-color="#123d57"/><stop offset="1" stop-color="#071d30"/></linearGradient></defs><rect width="100%" height="100%" fill="#06101a"/><rect x="45" y="70" width="1010" height="605" rx="20" fill="url(#sea)" stroke="#2a5e7f"/><text x="550" y="36" fill="#f4fbff" font-size="25" text-anchor="middle" class="title">11. The Gauntlet</text><text x="550" y="60" fill="#8fb6cc" font-size="13" text-anchor="middle">Badly outnumbered — nine hulls against your handful.</text><line x1="550" y1="120.81673306772907" x2="550" y2="629.183266932271" stroke="#eaf7ff" stroke-opacity=".18" stroke-dasharray="9 10" stroke-width="3"/><ellipse cx="550.0" cy="113.9" rx="34.8" ry="25.2" fill="#ff766d" stroke="#efffdc" stroke-width="2" opacity=".92" transform="rotate(6.2 550.0 113.9)"/><rect x="516.0" y="105.9" width="68" height="16" rx="8" fill="#cc332d" stroke="#fff" stroke-width="1"/><text x="550.0" y="153.1" fill="#d7edf7" font-size="10" text-anchor="middle">Northwatch</text><ellipse cx="550.0" cy="636.1" rx="33.5" ry="24.2" fill="#65d6ff" stroke="#efffdc" stroke-width="2" opacity=".92" transform="rotate(-16.2 550.0 636.1)"/><rect x="516.0" y="628.1" width="68" height="16" rx="8" fill="#128dcc" stroke="#fff" stroke-width="1"/><text x="550.0" y="674.3" fill="#d7edf7" font-size="10" text-anchor="middle">Southhaven</text><ellipse cx="388.5" cy="276.8" rx="51.7" ry="23.0" fill="#cf755f" stroke="#efffdc" stroke-width="1" opacity=".92" transform="rotate(25.4 388.5 276.8)"/><circle cx="388.5" cy="276.8" r="5.3" fill="#2f5a30" opacity=".55"/><ellipse cx="711.5" cy="298.7" rx="48.5" ry="21.6" fill="#cf755f" stroke="#efffdc" stroke-width="1" opacity=".92" transform="rotate(-4.7 711.5 298.7)"/><circle cx="711.5" cy="298.7" r="5.0" fill="#2f5a30" opacity=".55"/><ellipse cx="437.4" cy="357.7" rx="42.0" ry="18.7" fill="#cf755f" stroke="#efffdc" stroke-width="1" opacity=".92" transform="rotate(-21.1 437.4 357.7)"/><ellipse cx="677.4" cy="429.3" rx="42.0" ry="18.7" fill="#79c969" stroke="#efffdc" stroke-width="1" opacity=".92" transform="rotate(21.0 677.4 429.3)"/><text x="70" y="715" fill="#ffd060" font-size="15">Ships 9 enemy / 3 allied · Islands 4 · CLEAR · Ground 117% INF / 107% TANKS</text></svg>