<svg xmlns="http://www.w3.org/2000/svg" viewBox="0 0 1100 760"><defs><style>text{font-family:Segoe UI,Arial,sans-serif}.title{font-weight:800}</style><linearGradient id="sea" x1="0" y1="0" x2="0" y2="1"><stop offset="0" stop-color="#123d57"/><stop offset="1" stop-color="#071d30"/></linearGradient></defs><rect width="100%" height="100%" fill="#06101a"/><rect x="45" y="70" width="1010" height="605" rx="20" fill="url(#sea)" stroke="#2a5e7f"/><text x="550" y="36" fill="#f4fbff" font-size="25" text-anchor="middle" class="title">12. Typhoon Run</text><text x="550" y="60" fill="#8fb6cc" font-size="13" text-anchor="middle">A permanent tempest. Mountainous seas, blind guns.</text><line x1="550" y1="123.91774891774892" x2="550" y2="626.0822510822511" stroke="#eaf7ff" stroke-opacity=".18" stroke-dasharray="9 10" stroke-width="3"/><ellipse cx="550.0" cy="116.4" rx="34.8" ry="25.2" fill="#ff766d" stroke="#efffdc" stroke-width="2" opacity=".92" transform="rotate(-27.6 550.0 116.4)"/><rect x="516.0" y="108.4" width="68" height="16" rx="8" fill="#cc332d" stroke="#fff" stroke-width="1"/><text x="550.0" y="155.6" fill="#d7edf7" font-size="10" text-anchor="middle">Northwatch</text><ellipse cx="550.0" cy="633.6" rx="33.5" ry="24.2" fill="#65d6ff" stroke="#efffdc" stroke-width="2" opacity=".92" transform="rotate(9.6 550.0 633.6)"/><rect x="516.0" y="625.6" width="68" height="16" rx="8" fill="#128dcc" stroke="#fff" stroke-width="1"/><text x="550.0" y="671.8" fill="#d7edf7" font-size="10" text-anchor="middle">Southhaven</text><ellipse cx="374.6" cy="274.6" rx="48.5" ry="21.6" fill="#cf755f" stroke="#efffdc" stroke-width="1" opacity=".92" transform="rotate(-13.8 374.6 274.6)"/><circle cx="374.6" cy="274.6" r="5.0" fill="#2f5a30" opacity=".55"/><ellipse cx="719.8" cy="311.0" rx="42.0" ry="18.7" fill="#cf755f" stroke="#efffdc" stroke-width="1" opacity=".92" transform="rotate(31.1 719.8 311.0)"/><ellipse cx="483.5" cy="371.2" rx="58.2" ry="25.9" fill="#cf755f" stroke="#efffdc" stroke-width="1" opacity=".92" transform="rotate(18.0 483.5 371.2)"/><circle cx="483.5" cy="371.2" r="6.0" fill="#2f5a30" opacity=".55"/><text x="483.5" y="411.2" fill="#d7edf7" font-size="10" text-anchor="middle">Breaker</text><ellipse cx="646.0" cy="422.7" rx="51.7" ry="23.0" fill="#79c969" stroke="#efffdc" stroke-width="1" opacity=".92" transform="rotate(-23.7 646.0 422.7)"/><circle cx="646.0" cy="422.7" r="5.3" fill="#2f5a30" opacity=".55"/><ellipse cx="407.8" cy="479.2" rx="45.2" ry="20.2" fill="#79c969" stroke="#efffdc" stroke-width="1" opacity=".92" transform="rotate(32.2 407.8 479.2)"/><text x="70" y="715" fill="#ffd060" font-size="15">Ships 7 enemy / 6 allied · Islands 5 · STORM · Ground 126% INF / 116% TANKS</text></svg>