<svg xmlns="http://www.w3.org/2000/svg" viewBox="0 0 1100 760"><defs><style>text{font-family:Segoe UI,Arial,sans-serif}.title{font-weight:800}</style><linearGradient id="sea" x1="0" y1="0" x2="0" y2="1"><stop offset="0" stop-color="#123d57"/><stop offset="1" stop-color="#071d30"/></linearGradient></defs><rect width="100%" height="100%" fill="#06101a"/><rect x="45" y="70" width="1010" height="605" rx="20" fill="url(#sea)" stroke="#2a5e7f"/><text x="550" y="36" fill="#f4fbff" font-size="25" text-anchor="middle" class="title">13. Blackwater Ambush</text><text x="550" y="60" fill="#8fb6cc" font-size="13" text-anchor="middle">Fog thick as tar hides an enemy flagship.</text><line x1="550" y1="122.30290456431536" x2="550" y2="627.6970954356847" stroke="#eaf7ff" stroke-opacity=".18" stroke-dasharray="9 10" stroke-width="3"/><ellipse cx="550.0" cy="115.1" rx="34.8" ry="25.2" fill="#ff766d" stroke="#efffdc" stroke-width="2" opacity=".92" transform="rotate(0.8 550.0 115.1)"/><rect x="516.0" y="107.1" width="68" height="16" rx="8" fill="#cc332d" stroke="#fff" stroke-width="1"/><text x="550.0" y="154.3" fill="#d7edf7" font-size="10" text-anchor="middle">Northwatch</text><ellipse cx="550.0" cy="634.9" rx="33.5" ry="24.2" fill="#65d6ff" stroke="#efffdc" stroke-width="2" opacity=".92" transform="rotate(-26.8 550.0 634.9)"/><rect x="516.0" y="626.9" width="68" height="16" rx="8" fill="#128dcc" stroke="#fff" stroke-width="1"/><text x="550.0" y="673.1" fill="#d7edf7" font-size="10" text-anchor="middle">Southhaven</text><ellipse cx="437.4" cy="286.0" rx="54.9" ry="24.5" fill="#cf755f" stroke="#efffdc" stroke-width="1" opacity=".92" transform="rotate(25.6 437.4 286.0)"/><circle cx="437.4" cy="286.0" r="5.6" fill="#2f5a30" opacity=".55"/><text x="437.4" y="324.4" fill="#d7edf7" font-size="10" text-anchor="middle">Tar Shoal</text><ellipse cx="646.0" cy="316.0" rx="48.5" ry="21.6" fill="#cf755f" stroke="#efffdc" stroke-width="1" opacity=".92" transform="rotate(-15.3 646.0 316.0)"/><circle cx="646.0" cy="316.0" r="5.0" fill="#2f5a30" opacity=".55"/><ellipse cx="544.5" cy="364.2" rx="100.2" ry="44.6" fill="#cf755f" stroke="#efffdc" stroke-width="1" opacity=".92" transform="rotate(-15.9 544.5 364.2)"/><circle cx="544.5" cy="364.2" r="10.3" fill="#2f5a30" opacity=".55"/><text x="544.5" y="422.8" fill="#d7edf7" font-size="10" text-anchor="middle">Blackwater</text><ellipse cx="662.6" cy="420.7" rx="45.2" ry="20.2" fill="#79c969" stroke="#efffdc" stroke-width="1" opacity=".92" transform="rotate(9.1 662.6 420.7)"/><ellipse cx="441.1" cy="460.4" rx="48.5" ry="21.6" fill="#79c969" stroke="#efffdc" stroke-width="1" opacity=".92" transform="rotate(-6.3 441.1 460.4)"/><circle cx="441.1" cy="460.4" r="5.0" fill="#2f5a30" opacity=".55"/><ellipse cx="583.2" cy="478.5" rx="38.8" ry="17.3" fill="#79c969" stroke="#efffdc" stroke-width="1" opacity=".92" transform="rotate(13.0 583.2 478.5)"/><text x="1020" y="110" fill="#ffd060" font-size="30" text-anchor="middle">⚓</text><text x="70" y="715" fill="#ffd060" font-size="15">Ships 8 enemy / 5 allied · Islands 6 · FOG · Ground 146% INF / 134% TANKS</text></svg>