<svg xmlns="http://www.w3.org/2000/svg" viewBox="0 0 1100 760"><defs><style>text{font-family:Segoe UI,Arial,sans-serif}.title{font-weight:800}</style><linearGradient id="sea" x1="0" y1="0" x2="0" y2="1"><stop offset="0" stop-color="#123d57"/><stop offset="1" stop-color="#071d30"/></linearGradient></defs><rect width="100%" height="100%" fill="#06101a"/><rect x="45" y="70" width="1010" height="605" rx="20" fill="url(#sea)" stroke="#2a5e7f"/><text x="550" y="36" fill="#f4fbff" font-size="25" text-anchor="middle" class="title">14. Island Hopping</text><text x="550" y="60" fill="#8fb6cc" font-size="13" text-anchor="middle">A wider land campaign — eight islands, no enemy fleet.</text><line x1="550" y1="156.34920634920633" x2="550" y2="593.6507936507937" stroke="#eaf7ff" stroke-opacity=".18" stroke-dasharray="9 10" stroke-width="3"/><ellipse cx="550.0" cy="142.5" rx="34.8" ry="25.2" fill="#ff766d" stroke="#efffdc" stroke-width="2" opacity=".92" transform="rotate(-8.3 550.0 142.5)"/><rect x="516.0" y="134.5" width="68" height="16" rx="8" fill="#cc332d" stroke="#fff" stroke-width="1"/><text x="550.0" y="181.7" fill="#d7edf7" font-size="10" text-anchor="middle">Northwatch</text><ellipse cx="550.0" cy="607.5" rx="33.5" ry="24.2" fill="#65d6ff" stroke="#efffdc" stroke-width="2" opacity=".92" transform="rotate(-25.7 550.0 607.5)"/><rect x="516.0" y="599.5" width="68" height="16" rx="8" fill="#128dcc" stroke="#fff" stroke-width="1"/><text x="550.0" y="645.7" fill="#d7edf7" font-size="10" text-anchor="middle">Southhaven</text><ellipse cx="502.0" cy="202.4" rx="48.5" ry="21.6" fill="#cf755f" stroke="#efffdc" stroke-width="1" opacity=".92" transform="rotate(-6.7 502.0 202.4)"/><circle cx="502.0" cy="202.4" r="5.0" fill="#2f5a30" opacity=".55"/><ellipse cx="598.0" cy="250.7" rx="51.7" ry="23.0" fill="#cf755f" stroke="#efffdc" stroke-width="1" opacity=".92" transform="rotate(9.2 598.0 250.7)"/><circle cx="598.0" cy="250.7" r="5.3" fill="#2f5a30" opacity=".55"/><ellipse cx="506.6" cy="299.0" rx="54.9" ry="24.5" fill="#cf755f" stroke="#efffdc" stroke-width="1" opacity=".92" transform="rotate(4.7 506.6 299.0)"/><circle cx="506.6" cy="299.0" r="5.6" fill="#2f5a30" opacity=".55"/><text x="506.6" y="337.5" fill="#d7edf7" font-size="10" text-anchor="middle">Hill Three</text><ellipse cx="593.4" cy="347.4" rx="58.2" ry="25.9" fill="#cf755f" stroke="#efffdc" stroke-width="1" opacity=".92" transform="rotate(19.6 593.4 347.4)"/><circle cx="593.4" cy="347.4" r="6.0" fill="#2f5a30" opacity=".55"/><text x="593.4" y="387.3" fill="#d7edf7" font-size="10" text-anchor="middle">Depot Four</text><ellipse cx="503.8" cy="401.5" rx="58.2" ry="25.9" fill="#79c969" stroke="#efffdc" stroke-width="1" opacity=".92" transform="rotate(16.0 503.8 401.5)"/><circle cx="503.8" cy="401.5" r="6.0" fill="#2f5a30" opacity=".55"/><text x="503.8" y="441.4" fill="#d7edf7" font-size="10" text-anchor="middle">Bridge Five</text><ellipse cx="598.0" cy="453.3" rx="54.9" ry="24.5" fill="#79c969" stroke="#efffdc" stroke-width="1" opacity=".92" transform="rotate(32.0 598.0 453.3)"/><circle cx="598.0" cy="453.3" r="5.6" fill="#2f5a30" opacity=".55"/><text x="598.0" y="491.7" fill="#d7edf7" font-size="10" text-anchor="middle">Field Six</text><ellipse cx="511.2" cy="501.6" rx="51.7" ry="23.0" fill="#79c969" stroke="#efffdc" stroke-width="1" opacity=".92" transform="rotate(28.1 511.2 501.6)"/><circle cx="511.2" cy="501.6" r="5.3" fill="#2f5a30" opacity=".55"/><ellipse cx="588.8" cy="545.3" rx="48.5" ry="21.6" fill="#79c969" stroke="#efffdc" stroke-width="1" opacity=".92" transform="rotate(-28.6 588.8 545.3)"/><circle cx="588.8" cy="545.3" r="5.0" fill="#2f5a30" opacity=".55"/><rect x="64" y="88" width="104" height="24" rx="12" fill="#31562b" stroke="#8ee884"/><text x="116" y="105" fill="#d9ffd5" font-size="12" text-anchor="middle" font-weight="700">GROUND WAR</text><text x="70" y="715" fill="#ffd060" font-size="15">Ships 0 enemy / 4 allied · Islands 8 · CLEAR · Ground 245% INF / 210% TANKS</text></svg>