<svg xmlns="http://www.w3.org/2000/svg" viewBox="0 0 1100 760"><defs><style>text{font-family:Segoe UI,Arial,sans-serif}.title{font-weight:800}</style><linearGradient id="sea" x1="0" y1="0" x2="0" y2="1"><stop offset="0" stop-color="#123d57"/><stop offset="1" stop-color="#071d30"/></linearGradient></defs><rect width="100%" height="100%" fill="#06101a"/><rect x="45" y="70" width="1010" height="605" rx="20" fill="url(#sea)" stroke="#2a5e7f"/><text x="550" y="36" fill="#f4fbff" font-size="25" text-anchor="middle" class="title">15. Midnight Raid</text><text x="550" y="60" fill="#8fb6cc" font-size="13" text-anchor="middle">A strike under permanent dark. Searchlights and tracer.</text><line x1="550" y1="125.6787330316742" x2="550" y2="624.3212669683259" stroke="#eaf7ff" stroke-opacity=".18" stroke-dasharray="9 10" stroke-width="3"/><ellipse cx="550.0" cy="117.8" rx="34.8" ry="25.2" fill="#ff766d" stroke="#efffdc" stroke-width="2" opacity=".92" transform="rotate(-2.0 550.0 117.8)"/><rect x="516.0" y="109.8" width="68" height="16" rx="8" fill="#cc332d" stroke="#fff" stroke-width="1"/><text x="550.0" y="157.0" fill="#d7edf7" font-size="10" text-anchor="middle">Northwatch</text><ellipse cx="550.0" cy="632.2" rx="33.5" ry="24.2" fill="#65d6ff" stroke="#efffdc" stroke-width="2" opacity=".92" transform="rotate(30.0 550.0 632.2)"/><rect x="516.0" y="624.2" width="68" height="16" rx="8" fill="#128dcc" stroke="#fff" stroke-width="1"/><text x="550.0" y="670.4" fill="#d7edf7" font-size="10" text-anchor="middle">Southhaven</text><ellipse cx="402.3" cy="275.3" rx="45.2" ry="20.2" fill="#cf755f" stroke="#efffdc" stroke-width="1" opacity=".92" transform="rotate(13.2 402.3 275.3)"/><ellipse cx="657.1" cy="321.2" rx="48.5" ry="21.6" fill="#cf755f" stroke="#efffdc" stroke-width="1" opacity=".92" transform="rotate(-20.1 657.1 321.2)"/><circle cx="657.1" cy="321.2" r="5.0" fill="#2f5a30" opacity=".55"/><ellipse cx="516.8" cy="369.8" rx="84.0" ry="37.4" fill="#cf755f" stroke="#efffdc" stroke-width="1" opacity=".92" transform="rotate(-25.6 516.8 369.8)"/><circle cx="516.8" cy="369.8" r="8.6" fill="#2f5a30" opacity=".55"/><text x="516.8" y="421.2" fill="#d7edf7" font-size="10" text-anchor="middle">Raid Island</text><ellipse cx="671.8" cy="430.1" rx="45.2" ry="20.2" fill="#79c969" stroke="#efffdc" stroke-width="1" opacity=".92" transform="rotate(3.1 671.8 430.1)"/><ellipse cx="459.5" cy="476.7" rx="48.5" ry="21.6" fill="#79c969" stroke="#efffdc" stroke-width="1" opacity=".92" transform="rotate(-10.7 459.5 476.7)"/><circle cx="459.5" cy="476.7" r="5.0" fill="#2f5a30" opacity=".55"/><text x="1020" y="110" fill="#ffd060" font-size="30" text-anchor="middle">⚓</text><text x="70" y="715" fill="#ffd060" font-size="15">Ships 7 enemy / 5 allied · Islands 5 · CLEAR · Ground 166% INF / 152% TANKS</text></svg>