<svg xmlns="http://www.w3.org/2000/svg" viewBox="0 0 1100 760"><defs><style>text{font-family:Segoe UI,Arial,sans-serif}.title{font-weight:800}</style><linearGradient id="sea" x1="0" y1="0" x2="0" y2="1"><stop offset="0" stop-color="#123d57"/><stop offset="1" stop-color="#071d30"/></linearGradient></defs><rect width="100%" height="100%" fill="#06101a"/><rect x="45" y="70" width="1010" height="605" rx="20" fill="url(#sea)" stroke="#2a5e7f"/><text x="550" y="36" fill="#f4fbff" font-size="25" text-anchor="middle" class="title">16. The Iron Armada</text><text x="550" y="60" fill="#8fb6cc" font-size="13" text-anchor="middle">Eleven enemy warships steam over the horizon.</text><line x1="550" y1="120.81673306772907" x2="550" y2="629.183266932271" stroke="#eaf7ff" stroke-opacity=".18" stroke-dasharray="9 10" stroke-width="3"/><ellipse cx="550.0" cy="113.9" rx="34.8" ry="25.2" fill="#ff766d" stroke="#efffdc" stroke-width="2" opacity=".92" transform="rotate(21.2 550.0 113.9)"/><rect x="516.0" y="105.9" width="68" height="16" rx="8" fill="#cc332d" stroke="#fff" stroke-width="1"/><text x="550.0" y="153.1" fill="#d7edf7" font-size="10" text-anchor="middle">Northwatch</text><ellipse cx="550.0" cy="636.1" rx="33.5" ry="24.2" fill="#65d6ff" stroke="#efffdc" stroke-width="2" opacity=".92" transform="rotate(-1.2 550.0 636.1)"/><rect x="516.0" y="628.1" width="68" height="16" rx="8" fill="#128dcc" stroke="#fff" stroke-width="1"/><text x="550.0" y="674.3" fill="#d7edf7" font-size="10" text-anchor="middle">Southhaven</text><ellipse cx="853.8" cy="182.6" rx="41.1" ry="18.3" fill="#cf755f" stroke="#efffdc" stroke-width="1" opacity=".92" transform="rotate(-0.4 853.8 182.6)"/><ellipse cx="216.6" cy="253.8" rx="41.3" ry="18.4" fill="#cf755f" stroke="#efffdc" stroke-width="1" opacity=".92" transform="rotate(16.6 216.6 253.8)"/><ellipse cx="941.4" cy="332.9" rx="50.8" ry="22.6" fill="#cf755f" stroke="#efffdc" stroke-width="1" opacity=".92" transform="rotate(-27.1 941.4 332.9)"/><circle cx="941.4" cy="332.9" r="5.2" fill="#2f5a30" opacity=".55"/><ellipse cx="291.9" cy="409.8" rx="52.5" ry="23.4" fill="#79c969" stroke="#efffdc" stroke-width="1" opacity=".92" transform="rotate(-10.1 291.9 409.8)"/><circle cx="291.9" cy="409.8" r="5.4" fill="#2f5a30" opacity=".55"/><text x="291.9" y="447.2" fill="#d7edf7" font-size="10" text-anchor="middle">Pelican</text><ellipse cx="851.1" cy="488.2" rx="57.0" ry="25.4" fill="#79c969" stroke="#efffdc" stroke-width="1" opacity=".92" transform="rotate(-1.9 851.1 488.2)"/><circle cx="851.1" cy="488.2" r="5.9" fill="#2f5a30" opacity=".55"/><text x="851.1" y="527.6" fill="#d7edf7" font-size="10" text-anchor="middle">Broken Mast</text><ellipse cx="255.5" cy="575.1" rx="45.6" ry="20.3" fill="#79c969" stroke="#efffdc" stroke-width="1" opacity=".92" transform="rotate(23.1 255.5 575.1)"/><circle cx="255.5" cy="575.1" r="4.7" fill="#2f5a30" opacity=".55"/><text x="1020" y="110" fill="#ffd060" font-size="30" text-anchor="middle">⚓</text><text x="70" y="715" fill="#ffd060" font-size="15">Ships 11 enemy / 6 allied · Islands 6 · OVERCAST · Ground 176% INF / 161% TANKS</text></svg>