<svg xmlns="http://www.w3.org/2000/svg" viewBox="0 0 1100 760"><defs><style>text{font-family:Segoe UI,Arial,sans-serif}.title{font-weight:800}</style><linearGradient id="sea" x1="0" y1="0" x2="0" y2="1"><stop offset="0" stop-color="#123d57"/><stop offset="1" stop-color="#071d30"/></linearGradient></defs><rect width="100%" height="100%" fill="#06101a"/><rect x="45" y="70" width="1010" height="605" rx="20" fill="url(#sea)" stroke="#2a5e7f"/><text x="550" y="36" fill="#f4fbff" font-size="25" text-anchor="middle" class="title">17. Shattered Coast</text><text x="550" y="60" fill="#8fb6cc" font-size="13" text-anchor="middle">A sprawling reef broken into a hundred channels.</text><line x1="550" y1="120.81673306772907" x2="550" y2="629.183266932271" stroke="#eaf7ff" stroke-opacity=".18" stroke-dasharray="9 10" stroke-width="3"/><ellipse cx="550.0" cy="113.9" rx="34.8" ry="25.2" fill="#ff766d" stroke="#efffdc" stroke-width="2" opacity=".92" transform="rotate(-17.8 550.0 113.9)"/><rect x="516.0" y="105.9" width="68" height="16" rx="8" fill="#cc332d" stroke="#fff" stroke-width="1"/><text x="550.0" y="153.1" fill="#d7edf7" font-size="10" text-anchor="middle">Northwatch</text><ellipse cx="550.0" cy="636.1" rx="33.5" ry="24.2" fill="#65d6ff" stroke="#efffdc" stroke-width="2" opacity=".92" transform="rotate(29.8 550.0 636.1)"/><rect x="516.0" y="628.1" width="68" height="16" rx="8" fill="#128dcc" stroke="#fff" stroke-width="1"/><text x="550.0" y="674.3" fill="#d7edf7" font-size="10" text-anchor="middle">Southhaven</text><ellipse cx="356.2" cy="273.9" rx="50.1" ry="22.3" fill="#cf755f" stroke="#efffdc" stroke-width="1" opacity=".92" transform="rotate(-2.8 356.2 273.9)"/><circle cx="356.2" cy="273.9" r="5.2" fill="#2f5a30" opacity=".55"/><ellipse cx="466.9" cy="289.5" rx="37.2" ry="16.6" fill="#cf755f" stroke="#efffdc" stroke-width="1" opacity=".92" transform="rotate(12.8 466.9 289.5)"/><ellipse cx="653.4" cy="302.2" rx="42.0" ry="18.7" fill="#cf755f" stroke="#efffdc" stroke-width="1" opacity=".92" transform="rotate(-34.2 653.4 302.2)"/><ellipse cx="739.2" cy="331.1" rx="42.0" ry="18.7" fill="#cf755f" stroke="#efffdc" stroke-width="1" opacity=".92" transform="rotate(-18.4 739.2 331.1)"/><ellipse cx="398.6" cy="371.5" rx="48.5" ry="21.6" fill="#cf755f" stroke="#efffdc" stroke-width="1" opacity=".92" transform="rotate(23.8 398.6 371.5)"/><circle cx="398.6" cy="371.5" r="5.0" fill="#2f5a30" opacity=".55"/><ellipse cx="625.7" cy="410.8" rx="45.2" ry="20.2" fill="#79c969" stroke="#efffdc" stroke-width="1" opacity=".92" transform="rotate(-12.7 625.7 410.8)"/><ellipse cx="498.3" cy="464.0" rx="48.5" ry="21.6" fill="#79c969" stroke="#efffdc" stroke-width="1" opacity=".92" transform="rotate(-14.6 498.3 464.0)"/><circle cx="498.3" cy="464.0" r="5.0" fill="#2f5a30" opacity=".55"/><text x="70" y="715" fill="#ffd060" font-size="15">Ships 8 enemy / 5 allied · Islands 7 · CLEAR · Ground 172% INF / 158% TANKS</text></svg>