<svg xmlns="http://www.w3.org/2000/svg" viewBox="0 0 1100 760"><defs><style>text{font-family:Segoe UI,Arial,sans-serif}.title{font-weight:800}</style><linearGradient id="sea" x1="0" y1="0" x2="0" y2="1"><stop offset="0" stop-color="#123d57"/><stop offset="1" stop-color="#071d30"/></linearGradient></defs><rect width="100%" height="100%" fill="#06101a"/><rect x="45" y="70" width="1010" height="605" rx="20" fill="url(#sea)" stroke="#2a5e7f"/><text x="550" y="36" fill="#f4fbff" font-size="25" text-anchor="middle" class="title">18. Frozen Straits</text><text x="550" y="60" fill="#8fb6cc" font-size="13" text-anchor="middle">Grey twilight and freezing fog off the ice shelf.</text><line x1="550" y1="123.91774891774892" x2="550" y2="626.0822510822511" stroke="#eaf7ff" stroke-opacity=".18" stroke-dasharray="9 10" stroke-width="3"/><ellipse cx="550.0" cy="116.4" rx="34.8" ry="25.2" fill="#ff766d" stroke="#efffdc" stroke-width="2" opacity=".92" transform="rotate(18.4 550.0 116.4)"/><rect x="516.0" y="108.4" width="68" height="16" rx="8" fill="#cc332d" stroke="#fff" stroke-width="1"/><text x="550.0" y="155.6" fill="#d7edf7" font-size="10" text-anchor="middle">Northwatch</text><ellipse cx="550.0" cy="633.6" rx="33.5" ry="24.2" fill="#65d6ff" stroke="#efffdc" stroke-width="2" opacity=".92" transform="rotate(-14.4 550.0 633.6)"/><rect x="516.0" y="625.6" width="68" height="16" rx="8" fill="#128dcc" stroke="#fff" stroke-width="1"/><text x="550.0" y="671.8" fill="#d7edf7" font-size="10" text-anchor="middle">Southhaven</text><ellipse cx="471.5" cy="283.4" rx="77.5" ry="34.6" fill="#cf755f" stroke="#efffdc" stroke-width="1" opacity=".92" transform="rotate(-25.5 471.5 283.4)"/><circle cx="471.5" cy="283.4" r="8.0" fill="#2f5a30" opacity=".55"/><text x="471.5" y="331.9" fill="#d7edf7" font-size="10" text-anchor="middle">Ice Gate West</text><ellipse cx="625.7" cy="300.9" rx="74.3" ry="33.1" fill="#cf755f" stroke="#efffdc" stroke-width="1" opacity=".92" transform="rotate(-5.1 625.7 300.9)"/><circle cx="625.7" cy="300.9" r="7.6" fill="#2f5a30" opacity=".55"/><text x="625.7" y="348.1" fill="#d7edf7" font-size="10" text-anchor="middle">Ice Gate East</text><ellipse cx="479.8" cy="407.6" rx="71.1" ry="31.7" fill="#79c969" stroke="#efffdc" stroke-width="1" opacity=".92" transform="rotate(1.2 479.8 407.6)"/><circle cx="479.8" cy="407.6" r="7.3" fill="#2f5a30" opacity=".55"/><text x="479.8" y="453.3" fill="#d7edf7" font-size="10" text-anchor="middle">Frost Channel</text><ellipse cx="631.2" cy="427.7" rx="67.8" ry="30.2" fill="#79c969" stroke="#efffdc" stroke-width="1" opacity=".92" transform="rotate(21.7 631.2 427.7)"/><circle cx="631.2" cy="427.7" r="7.0" fill="#2f5a30" opacity=".55"/><text x="631.2" y="472.0" fill="#d7edf7" font-size="10" text-anchor="middle">Glacier Tooth</text><text x="1020" y="110" fill="#ffd060" font-size="30" text-anchor="middle">⚓</text><text x="70" y="715" fill="#ffd060" font-size="15">Ships 8 enemy / 6 allied · Islands 4 · FOG · Ground 195% INF / 180% TANKS</text></svg>