<svg xmlns="http://www.w3.org/2000/svg" viewBox="0 0 1100 760"><defs><style>text{font-family:Segoe UI,Arial,sans-serif}.title{font-weight:800}</style><linearGradient id="sea" x1="0" y1="0" x2="0" y2="1"><stop offset="0" stop-color="#123d57"/><stop offset="1" stop-color="#071d30"/></linearGradient></defs><rect width="100%" height="100%" fill="#06101a"/><rect x="45" y="70" width="1010" height="605" rx="20" fill="url(#sea)" stroke="#2a5e7f"/><text x="550" y="36" fill="#f4fbff" font-size="25" text-anchor="middle" class="title">19. The Reckoning</text><text x="550" y="60" fill="#8fb6cc" font-size="13" text-anchor="middle">A stand-up brawl in a rolling storm.</text><line x1="550" y1="120.81673306772907" x2="550" y2="629.183266932271" stroke="#eaf7ff" stroke-opacity=".18" stroke-dasharray="9 10" stroke-width="3"/><ellipse cx="550.0" cy="113.9" rx="34.8" ry="25.2" fill="#ff766d" stroke="#efffdc" stroke-width="2" opacity=".92" transform="rotate(-25.8 550.0 113.9)"/><rect x="516.0" y="105.9" width="68" height="16" rx="8" fill="#cc332d" stroke="#fff" stroke-width="1"/><text x="550.0" y="153.1" fill="#d7edf7" font-size="10" text-anchor="middle">Northwatch</text><ellipse cx="550.0" cy="636.1" rx="33.5" ry="24.2" fill="#65d6ff" stroke="#efffdc" stroke-width="2" opacity=".92" transform="rotate(21.8 550.0 636.1)"/><rect x="516.0" y="628.1" width="68" height="16" rx="8" fill="#128dcc" stroke="#fff" stroke-width="1"/><text x="550.0" y="674.3" fill="#d7edf7" font-size="10" text-anchor="middle">Southhaven</text><ellipse cx="402.0" cy="194.6" rx="55.2" ry="24.6" fill="#cf755f" stroke="#efffdc" stroke-width="1" opacity=".92" transform="rotate(-23.6 402.0 194.6)"/><circle cx="402.0" cy="194.6" r="5.7" fill="#2f5a30" opacity=".55"/><text x="402.0" y="233.2" fill="#d7edf7" font-size="10" text-anchor="middle">Skull Reef</text><ellipse cx="343.6" cy="273.7" rx="40.0" ry="17.8" fill="#cf755f" stroke="#efffdc" stroke-width="1" opacity=".92" transform="rotate(-12.2 343.6 273.7)"/><ellipse cx="576.0" cy="353.0" rx="56.3" ry="25.1" fill="#cf755f" stroke="#efffdc" stroke-width="1" opacity=".92" transform="rotate(30.9 576.0 353.0)"/><circle cx="576.0" cy="353.0" r="5.8" fill="#2f5a30" opacity=".55"/><text x="576.0" y="392.1" fill="#d7edf7" font-size="10" text-anchor="middle">Lowtide</text><ellipse cx="505.2" cy="408.6" rx="46.9" ry="20.9" fill="#79c969" stroke="#efffdc" stroke-width="1" opacity=".92" transform="rotate(-34.3 505.2 408.6)"/><circle cx="505.2" cy="408.6" r="4.8" fill="#2f5a30" opacity=".55"/><ellipse cx="734.1" cy="476.4" rx="66.2" ry="29.5" fill="#79c969" stroke="#efffdc" stroke-width="1" opacity=".92" transform="rotate(5.8 734.1 476.4)"/><circle cx="734.1" cy="476.4" r="6.8" fill="#2f5a30" opacity=".55"/><text x="734.1" y="520.0" fill="#d7edf7" font-size="10" text-anchor="middle">Broken Mast</text><ellipse cx="701.2" cy="551.5" rx="46.7" ry="20.8" fill="#79c969" stroke="#efffdc" stroke-width="1" opacity=".92" transform="rotate(19.1 701.2 551.5)"/><circle cx="701.2" cy="551.5" r="4.8" fill="#2f5a30" opacity=".55"/><text x="1020" y="110" fill="#ffd060" font-size="30" text-anchor="middle">⚓</text><text x="70" y="715" fill="#ffd060" font-size="15">Ships 9 enemy / 5 allied · Islands 6 · STORM · Ground 205% INF / 189% TANKS</text></svg>