<svg xmlns="http://www.w3.org/2000/svg" viewBox="0 0 1100 760"><defs><style>text{font-family:Segoe UI,Arial,sans-serif}.title{font-weight:800}</style><linearGradient id="sea" x1="0" y1="0" x2="0" y2="1"><stop offset="0" stop-color="#123d57"/><stop offset="1" stop-color="#071d30"/></linearGradient></defs><rect width="100%" height="100%" fill="#06101a"/><rect x="45" y="70" width="1010" height="605" rx="20" fill="url(#sea)" stroke="#2a5e7f"/><text x="550" y="36" fill="#f4fbff" font-size="25" text-anchor="middle" class="title">20. Ghost Fleet</text><text x="550" y="60" fill="#8fb6cc" font-size="13" text-anchor="middle">Outnumbered, alone, blind in the fog and dark.</text><line x1="550" y1="122.30290456431536" x2="550" y2="627.6970954356847" stroke="#eaf7ff" stroke-opacity=".18" stroke-dasharray="9 10" stroke-width="3"/><ellipse cx="550.0" cy="115.1" rx="34.8" ry="25.2" fill="#ff766d" stroke="#efffdc" stroke-width="2" opacity=".92" transform="rotate(7.8 550.0 115.1)"/><rect x="516.0" y="107.1" width="68" height="16" rx="8" fill="#cc332d" stroke="#fff" stroke-width="1"/><text x="550.0" y="154.3" fill="#d7edf7" font-size="10" text-anchor="middle">Northwatch</text><ellipse cx="550.0" cy="634.9" rx="33.5" ry="24.2" fill="#65d6ff" stroke="#efffdc" stroke-width="2" opacity=".92" transform="rotate(-19.8 550.0 634.9)"/><rect x="516.0" y="626.9" width="68" height="16" rx="8" fill="#128dcc" stroke="#fff" stroke-width="1"/><text x="550.0" y="673.1" fill="#d7edf7" font-size="10" text-anchor="middle">Southhaven</text><ellipse cx="391.2" cy="269.1" rx="40.4" ry="18.0" fill="#cf755f" stroke="#efffdc" stroke-width="1" opacity=".92" transform="rotate(23.9 391.2 269.1)"/><ellipse cx="694.0" cy="304.0" rx="40.4" ry="18.0" fill="#cf755f" stroke="#efffdc" stroke-width="1" opacity=".92" transform="rotate(-5.7 694.0 304.0)"/><ellipse cx="522.3" cy="353.3" rx="58.2" ry="25.9" fill="#cf755f" stroke="#efffdc" stroke-width="1" opacity=".92" transform="rotate(-13.7 522.3 353.3)"/><circle cx="522.3" cy="353.3" r="6.0" fill="#2f5a30" opacity=".55"/><text x="522.3" y="393.3" fill="#d7edf7" font-size="10" text-anchor="middle">Phantom Bank</text><ellipse cx="653.4" cy="418.3" rx="42.0" ry="18.7" fill="#79c969" stroke="#efffdc" stroke-width="1" opacity=".92" transform="rotate(14.6 653.4 418.3)"/><ellipse cx="454.0" cy="471.3" rx="42.0" ry="18.7" fill="#79c969" stroke="#efffdc" stroke-width="1" opacity=".92" transform="rotate(4.4 454.0 471.3)"/><text x="1020" y="110" fill="#ffd060" font-size="30" text-anchor="middle">⚓</text><text x="70" y="715" fill="#ffd060" font-size="15">Ships 9 enemy / 4 allied · Islands 5 · FOG · Ground 215% INF / 198% TANKS</text></svg>