<svg xmlns="http://www.w3.org/2000/svg" viewBox="0 0 1100 760"><defs><style>text{font-family:Segoe UI,Arial,sans-serif}.title{font-weight:800}</style><linearGradient id="sea" x1="0" y1="0" x2="0" y2="1"><stop offset="0" stop-color="#123d57"/><stop offset="1" stop-color="#071d30"/></linearGradient></defs><rect width="100%" height="100%" fill="#06101a"/><rect x="45" y="70" width="1010" height="605" rx="20" fill="url(#sea)" stroke="#2a5e7f"/><text x="550" y="36" fill="#f4fbff" font-size="25" text-anchor="middle" class="title">21. Volcano Bay</text><text x="550" y="60" fill="#8fb6cc" font-size="13" text-anchor="middle">Ash-choked skies over a dense volcanic chain.</text><line x1="550" y1="120.81673306772907" x2="550" y2="629.183266932271" stroke="#eaf7ff" stroke-opacity=".18" stroke-dasharray="9 10" stroke-width="3"/><ellipse cx="550.0" cy="113.9" rx="34.8" ry="25.2" fill="#ff766d" stroke="#efffdc" stroke-width="2" opacity=".92" transform="rotate(-33.8 550.0 113.9)"/><rect x="516.0" y="105.9" width="68" height="16" rx="8" fill="#cc332d" stroke="#fff" stroke-width="1"/><text x="550.0" y="153.1" fill="#d7edf7" font-size="10" text-anchor="middle">Northwatch</text><ellipse cx="550.0" cy="636.1" rx="33.5" ry="24.2" fill="#65d6ff" stroke="#efffdc" stroke-width="2" opacity=".92" transform="rotate(13.8 550.0 636.1)"/><rect x="516.0" y="628.1" width="68" height="16" rx="8" fill="#128dcc" stroke="#fff" stroke-width="1"/><text x="550.0" y="674.3" fill="#d7edf7" font-size="10" text-anchor="middle">Southhaven</text><ellipse cx="363.5" cy="277.9" rx="58.2" ry="25.9" fill="#cf755f" stroke="#efffdc" stroke-width="1" opacity=".92" transform="rotate(-17.0 363.5 277.9)"/><circle cx="363.5" cy="277.9" r="6.0" fill="#2f5a30" opacity=".55"/><text x="363.5" y="317.9" fill="#d7edf7" font-size="10" text-anchor="middle">Ashfall</text><ellipse cx="708.8" cy="295.3" rx="53.3" ry="23.8" fill="#cf755f" stroke="#efffdc" stroke-width="1" opacity=".92" transform="rotate(24.3 708.8 295.3)"/><circle cx="708.8" cy="295.3" r="5.5" fill="#2f5a30" opacity=".55"/><text x="708.8" y="333.0" fill="#d7edf7" font-size="10" text-anchor="middle">Basalt</text><ellipse cx="483.5" cy="354.2" rx="122.8" ry="54.7" fill="#cf755f" stroke="#efffdc" stroke-width="1" opacity=".92" transform="rotate(13.1 483.5 354.2)"/><circle cx="483.5" cy="354.2" r="12.6" fill="#2f5a30" opacity=".55"/><text x="483.5" y="422.9" fill="#d7edf7" font-size="10" text-anchor="middle">Volcano Bay</text><ellipse cx="653.4" cy="402.7" rx="58.2" ry="25.9" fill="#79c969" stroke="#efffdc" stroke-width="1" opacity=".92" transform="rotate(-27.6 653.4 402.7)"/><circle cx="653.4" cy="402.7" r="6.0" fill="#2f5a30" opacity=".55"/><text x="653.4" y="442.6" fill="#d7edf7" font-size="10" text-anchor="middle">Lava Key</text><ellipse cx="385.7" cy="446.6" rx="51.7" ry="23.0" fill="#79c969" stroke="#efffdc" stroke-width="1" opacity=".92" transform="rotate(23.3 385.7 446.6)"/><circle cx="385.7" cy="446.6" r="5.3" fill="#2f5a30" opacity=".55"/><ellipse cx="583.2" cy="467.4" rx="54.9" ry="24.5" fill="#79c969" stroke="#efffdc" stroke-width="1" opacity=".92" transform="rotate(-20.6 583.2 467.4)"/><circle cx="583.2" cy="467.4" r="5.6" fill="#2f5a30" opacity=".55"/><text x="583.2" y="505.9" fill="#d7edf7" font-size="10" text-anchor="middle">Smoke Point</text><ellipse cx="736.5" cy="484.8" rx="45.2" ry="20.2" fill="#79c969" stroke="#efffdc" stroke-width="1" opacity=".92" transform="rotate(-0.1 736.5 484.8)"/><ellipse cx="520.5" cy="500.9" rx="42.0" ry="18.7" fill="#79c969" stroke="#efffdc" stroke-width="1" opacity=".92" transform="rotate(-19.9 520.5 500.9)"/><text x="70" y="715" fill="#ffd060" font-size="15">Ships 8 enemy / 6 allied · Islands 8 · OVERCAST · Ground 229% INF / 211% TANKS</text></svg>