<svg xmlns="http://www.w3.org/2000/svg" viewBox="0 0 1100 760"><defs><style>text{font-family:Segoe UI,Arial,sans-serif}.title{font-weight:800}</style><linearGradient id="sea" x1="0" y1="0" x2="0" y2="1"><stop offset="0" stop-color="#123d57"/><stop offset="1" stop-color="#071d30"/></linearGradient></defs><rect width="100%" height="100%" fill="#06101a"/><rect x="45" y="70" width="1010" height="605" rx="20" fill="url(#sea)" stroke="#2a5e7f"/><text x="550" y="36" fill="#f4fbff" font-size="25" text-anchor="middle" class="title">22. Last Bastion</text><text x="550" y="60" fill="#8fb6cc" font-size="13" text-anchor="middle">Ten fortified islands to storm. Armour ashore, now.</text><line x1="550" y1="151.10294117647058" x2="550" y2="598.8970588235294" stroke="#eaf7ff" stroke-opacity=".18" stroke-dasharray="9 10" stroke-width="3"/><ellipse cx="550.0" cy="138.3" rx="34.8" ry="25.2" fill="#ff766d" stroke="#efffdc" stroke-width="2" opacity=".92" transform="rotate(27.1 550.0 138.3)"/><rect x="516.0" y="130.3" width="68" height="16" rx="8" fill="#cc332d" stroke="#fff" stroke-width="1"/><text x="550.0" y="177.5" fill="#d7edf7" font-size="10" text-anchor="middle">Northwatch</text><ellipse cx="550.0" cy="611.7" rx="33.5" ry="24.2" fill="#65d6ff" stroke="#efffdc" stroke-width="2" opacity=".92" transform="rotate(14.9 550.0 611.7)"/><rect x="516.0" y="603.7" width="68" height="16" rx="8" fill="#128dcc" stroke="#fff" stroke-width="1"/><text x="550.0" y="649.9" fill="#d7edf7" font-size="10" text-anchor="middle">Southhaven</text><ellipse cx="486.3" cy="195.9" rx="48.5" ry="21.6" fill="#cf755f" stroke="#efffdc" stroke-width="1" opacity=".92" transform="rotate(27.3 486.3 195.9)"/><circle cx="486.3" cy="195.9" r="5.0" fill="#2f5a30" opacity=".55"/><ellipse cx="612.8" cy="234.3" rx="51.7" ry="23.0" fill="#cf755f" stroke="#efffdc" stroke-width="1" opacity=".92" transform="rotate(-24.4 612.8 234.3)"/><circle cx="612.8" cy="234.3" r="5.3" fill="#2f5a30" opacity=".55"/><ellipse cx="485.4" cy="274.8" rx="54.9" ry="24.5" fill="#cf755f" stroke="#efffdc" stroke-width="1" opacity=".92" transform="rotate(-33.2 485.4 274.8)"/><circle cx="485.4" cy="274.8" r="5.6" fill="#2f5a30" opacity=".55"/><text x="485.4" y="313.3" fill="#d7edf7" font-size="10" text-anchor="middle">Wall Three</text><ellipse cx="616.5" cy="319.6" rx="58.2" ry="25.9" fill="#cf755f" stroke="#efffdc" stroke-width="1" opacity=".92" transform="rotate(-13.6 616.5 319.6)"/><circle cx="616.5" cy="319.6" r="6.0" fill="#2f5a30" opacity=".55"/><text x="616.5" y="359.5" fill="#d7edf7" font-size="10" text-anchor="middle">Wall Four</text><ellipse cx="483.5" cy="366.5" rx="64.6" ry="28.8" fill="#cf755f" stroke="#efffdc" stroke-width="1" opacity=".92" transform="rotate(-22.2 483.5 366.5)"/><circle cx="483.5" cy="366.5" r="6.6" fill="#2f5a30" opacity=".55"/><text x="483.5" y="409.3" fill="#d7edf7" font-size="10" text-anchor="middle">Bastion Five</text><ellipse cx="616.5" cy="413.4" rx="63.0" ry="28.1" fill="#79c969" stroke="#efffdc" stroke-width="1" opacity=".92" transform="rotate(-2.1 616.5 413.4)"/><circle cx="616.5" cy="413.4" r="6.5" fill="#2f5a30" opacity=".55"/><text x="616.5" y="455.5" fill="#d7edf7" font-size="10" text-anchor="middle">Bastion Six</text><ellipse cx="489.1" cy="458.2" rx="56.5" ry="25.2" fill="#79c969" stroke="#efffdc" stroke-width="1" opacity=".92" transform="rotate(-10.5 489.1 458.2)"/><circle cx="489.1" cy="458.2" r="5.8" fill="#2f5a30" opacity=".55"/><text x="489.1" y="497.4" fill="#d7edf7" font-size="10" text-anchor="middle">Gate Seven</text><ellipse cx="609.1" cy="498.7" rx="53.3" ry="23.8" fill="#79c969" stroke="#efffdc" stroke-width="1" opacity=".92" transform="rotate(7.5 609.1 498.7)"/><circle cx="609.1" cy="498.7" r="5.5" fill="#2f5a30" opacity=".55"/><text x="609.1" y="536.4" fill="#d7edf7" font-size="10" text-anchor="middle">Gate Eight</text><ellipse cx="508.5" cy="534.9" rx="50.1" ry="22.3" fill="#79c969" stroke="#efffdc" stroke-width="1" opacity=".92" transform="rotate(1.0 508.5 534.9)"/><circle cx="508.5" cy="534.9" r="5.2" fill="#2f5a30" opacity=".55"/><ellipse cx="590.6" cy="564.8" rx="53.3" ry="23.8" fill="#79c969" stroke="#efffdc" stroke-width="1" opacity=".92" transform="rotate(13.5 590.6 564.8)"/><circle cx="590.6" cy="564.8" r="5.5" fill="#2f5a30" opacity=".55"/><text x="590.6" y="602.5" fill="#d7edf7" font-size="10" text-anchor="middle">Final Keep</text><rect x="64" y="88" width="104" height="24" rx="12" fill="#31562b" stroke="#8ee884"/><text x="116" y="105" fill="#d9ffd5" font-size="12" text-anchor="middle" font-weight="700">GROUND WAR</text><text x="70" y="715" fill="#ffd060" font-size="15">Ships 0 enemy / 5 allied · Islands 10 · OVERCAST · Ground 275% INF / 255% TANKS</text></svg>