<svg xmlns="http://www.w3.org/2000/svg" viewBox="0 0 1100 760"><defs><style>text{font-family:Segoe UI,Arial,sans-serif}.title{font-weight:800}</style><linearGradient id="sea" x1="0" y1="0" x2="0" y2="1"><stop offset="0" stop-color="#123d57"/><stop offset="1" stop-color="#071d30"/></linearGradient></defs><rect width="100%" height="100%" fill="#06101a"/><rect x="45" y="70" width="1010" height="605" rx="20" fill="url(#sea)" stroke="#2a5e7f"/><text x="550" y="36" fill="#f4fbff" font-size="25" text-anchor="middle" class="title">23. The Long Night</text><text x="550" y="60" fill="#8fb6cc" font-size="13" text-anchor="middle">A war that never sees the sun.</text><line x1="550" y1="120.81673306772907" x2="550" y2="629.183266932271" stroke="#eaf7ff" stroke-opacity=".18" stroke-dasharray="9 10" stroke-width="3"/><ellipse cx="550.0" cy="113.9" rx="34.8" ry="25.2" fill="#ff766d" stroke="#efffdc" stroke-width="2" opacity=".92" transform="rotate(28.2 550.0 113.9)"/><rect x="516.0" y="105.9" width="68" height="16" rx="8" fill="#cc332d" stroke="#fff" stroke-width="1"/><text x="550.0" y="153.1" fill="#d7edf7" font-size="10" text-anchor="middle">Northwatch</text><ellipse cx="550.0" cy="636.1" rx="33.5" ry="24.2" fill="#65d6ff" stroke="#efffdc" stroke-width="2" opacity=".92" transform="rotate(5.8 550.0 636.1)"/><rect x="516.0" y="628.1" width="68" height="16" rx="8" fill="#128dcc" stroke="#fff" stroke-width="1"/><text x="550.0" y="674.3" fill="#d7edf7" font-size="10" text-anchor="middle">Southhaven</text><ellipse cx="475.0" cy="155.2" rx="48.4" ry="21.6" fill="#cf755f" stroke="#efffdc" stroke-width="1" opacity=".92" transform="rotate(29.4 475.0 155.2)"/><circle cx="475.0" cy="155.2" r="5.0" fill="#2f5a30" opacity=".55"/><ellipse cx="690.9" cy="254.2" rx="53.3" ry="23.7" fill="#cf755f" stroke="#efffdc" stroke-width="1" opacity=".92" transform="rotate(5.1 690.9 254.2)"/><circle cx="690.9" cy="254.2" r="5.5" fill="#2f5a30" opacity=".55"/><text x="690.9" y="291.9" fill="#d7edf7" font-size="10" text-anchor="middle">Far Lantern</text><ellipse cx="410.7" cy="390.1" rx="40.3" ry="18.0" fill="#79c969" stroke="#efffdc" stroke-width="1" opacity=".92" transform="rotate(5.3 410.7 390.1)"/><ellipse cx="519.4" cy="488.3" rx="61.0" ry="27.2" fill="#79c969" stroke="#efffdc" stroke-width="1" opacity=".92" transform="rotate(-30.8 519.4 488.3)"/><circle cx="519.4" cy="488.3" r="6.3" fill="#2f5a30" opacity=".55"/><text x="519.4" y="529.5" fill="#d7edf7" font-size="10" text-anchor="middle">Pelican</text><ellipse cx="497.5" cy="578.3" rx="55.0" ry="24.5" fill="#79c969" stroke="#efffdc" stroke-width="1" opacity=".92" transform="rotate(-12.9 497.5 578.3)"/><circle cx="497.5" cy="578.3" r="5.7" fill="#2f5a30" opacity=".55"/><text x="497.5" y="616.8" fill="#d7edf7" font-size="10" text-anchor="middle">Broken Mast</text><text x="1020" y="110" fill="#ffd060" font-size="30" text-anchor="middle">⚓</text><text x="70" y="715" fill="#ffd060" font-size="15">Ships 10 enemy / 6 allied · Islands 5 · CLEAR · Ground 245% INF / 225% TANKS</text></svg>