<svg xmlns="http://www.w3.org/2000/svg" viewBox="0 0 1100 760"><defs><style>text{font-family:Segoe UI,Arial,sans-serif}.title{font-weight:800}</style><linearGradient id="sea" x1="0" y1="0" x2="0" y2="1"><stop offset="0" stop-color="#123d57"/><stop offset="1" stop-color="#071d30"/></linearGradient></defs><rect width="100%" height="100%" fill="#06101a"/><rect x="45" y="70" width="1010" height="605" rx="20" fill="url(#sea)" stroke="#2a5e7f"/><text x="550" y="36" fill="#f4fbff" font-size="25" text-anchor="middle" class="title">24. Hurricane Alley</text><text x="550" y="60" fill="#8fb6cc" font-size="13" text-anchor="middle">Back-to-back storms and a heavy enemy line.</text><line x1="550" y1="120.81673306772907" x2="550" y2="629.183266932271" stroke="#eaf7ff" stroke-opacity=".18" stroke-dasharray="9 10" stroke-width="3"/><ellipse cx="550.0" cy="113.9" rx="34.8" ry="25.2" fill="#ff766d" stroke="#efffdc" stroke-width="2" opacity=".92" transform="rotate(-10.8 550.0 113.9)"/><rect x="516.0" y="105.9" width="68" height="16" rx="8" fill="#cc332d" stroke="#fff" stroke-width="1"/><text x="550.0" y="153.1" fill="#d7edf7" font-size="10" text-anchor="middle">Northwatch</text><ellipse cx="550.0" cy="636.1" rx="33.5" ry="24.2" fill="#65d6ff" stroke="#efffdc" stroke-width="2" opacity=".92" transform="rotate(-33.2 550.0 636.1)"/><rect x="516.0" y="628.1" width="68" height="16" rx="8" fill="#128dcc" stroke="#fff" stroke-width="1"/><text x="550.0" y="674.3" fill="#d7edf7" font-size="10" text-anchor="middle">Southhaven</text><ellipse cx="413.2" cy="207.0" rx="56.6" ry="25.2" fill="#cf755f" stroke="#efffdc" stroke-width="1" opacity=".92" transform="rotate(-4.6 413.2 207.0)"/><circle cx="413.2" cy="207.0" r="5.8" fill="#2f5a30" opacity=".55"/><text x="413.2" y="246.2" fill="#d7edf7" font-size="10" text-anchor="middle">Skull Reef</text><ellipse cx="351.3" cy="281.4" rx="52.1" ry="23.2" fill="#cf755f" stroke="#efffdc" stroke-width="1" opacity=".92" transform="rotate(5.4 351.3 281.4)"/><circle cx="351.3" cy="281.4" r="5.4" fill="#2f5a30" opacity=".55"/><text x="351.3" y="318.6" fill="#d7edf7" font-size="10" text-anchor="middle">Far Lantern</text><ellipse cx="623.6" cy="389.7" rx="43.2" ry="19.2" fill="#79c969" stroke="#efffdc" stroke-width="1" opacity=".92" transform="rotate(-10.7 623.6 389.7)"/><ellipse cx="579.2" cy="461.5" rx="60.8" ry="27.1" fill="#79c969" stroke="#efffdc" stroke-width="1" opacity=".92" transform="rotate(0.6 579.2 461.5)"/><circle cx="579.2" cy="461.5" r="6.3" fill="#2f5a30" opacity=".55"/><text x="579.2" y="502.5" fill="#d7edf7" font-size="10" text-anchor="middle">Pelican</text><ellipse cx="851.3" cy="559.5" rx="61.0" ry="27.2" fill="#79c969" stroke="#efffdc" stroke-width="1" opacity=".92" transform="rotate(-17.8 851.3 559.5)"/><circle cx="851.3" cy="559.5" r="6.3" fill="#2f5a30" opacity=".55"/><text x="851.3" y="600.7" fill="#d7edf7" font-size="10" text-anchor="middle">Broken Mast</text><text x="1020" y="110" fill="#ffd060" font-size="30" text-anchor="middle">⚓</text><text x="70" y="715" fill="#ffd060" font-size="15">Ships 9 enemy / 6 allied · Islands 5 · STORM · Ground 255% INF / 234% TANKS</text></svg>