<svg xmlns="http://www.w3.org/2000/svg" viewBox="0 0 1100 760"><defs><style>text{font-family:Segoe UI,Arial,sans-serif}.title{font-weight:800}</style><linearGradient id="sea" x1="0" y1="0" x2="0" y2="1"><stop offset="0" stop-color="#123d57"/><stop offset="1" stop-color="#071d30"/></linearGradient></defs><rect width="100%" height="100%" fill="#06101a"/><rect x="45" y="70" width="1010" height="605" rx="20" fill="url(#sea)" stroke="#2a5e7f"/><text x="550" y="36" fill="#f4fbff" font-size="25" text-anchor="middle" class="title">25. Twin Leviathans</text><text x="550" y="60" fill="#8fb6cc" font-size="13" text-anchor="middle">The enemy fields its capital ships in force.</text><line x1="550" y1="119.44444444444444" x2="550" y2="630.5555555555555" stroke="#eaf7ff" stroke-opacity=".18" stroke-dasharray="9 10" stroke-width="3"/><ellipse cx="550.0" cy="112.8" rx="34.8" ry="25.2" fill="#ff766d" stroke="#efffdc" stroke-width="2" opacity=".92" transform="rotate(17.6 550.0 112.8)"/><rect x="516.0" y="104.8" width="68" height="16" rx="8" fill="#cc332d" stroke="#fff" stroke-width="1"/><text x="550.0" y="152.0" fill="#d7edf7" font-size="10" text-anchor="middle">Northwatch</text><ellipse cx="550.0" cy="637.2" rx="33.5" ry="24.2" fill="#65d6ff" stroke="#efffdc" stroke-width="2" opacity=".92" transform="rotate(0.4 550.0 637.2)"/><rect x="516.0" y="629.2" width="68" height="16" rx="8" fill="#128dcc" stroke="#fff" stroke-width="1"/><text x="550.0" y="675.5" fill="#d7edf7" font-size="10" text-anchor="middle">Southhaven</text><ellipse cx="915.2" cy="176.8" rx="48.5" ry="21.6" fill="#cf755f" stroke="#efffdc" stroke-width="1" opacity=".92" transform="rotate(2.2 915.2 176.8)"/><circle cx="915.2" cy="176.8" r="5.0" fill="#2f5a30" opacity=".55"/><ellipse cx="226.6" cy="263.4" rx="38.1" ry="17.0" fill="#cf755f" stroke="#efffdc" stroke-width="1" opacity=".92" transform="rotate(17.9 226.6 263.4)"/><ellipse cx="822.7" cy="335.5" rx="51.7" ry="23.1" fill="#cf755f" stroke="#efffdc" stroke-width="1" opacity=".92" transform="rotate(29.3 822.7 335.5)"/><circle cx="822.7" cy="335.5" r="5.3" fill="#2f5a30" opacity=".55"/><text x="822.7" y="372.5" fill="#d7edf7" font-size="10" text-anchor="middle">Lowtide</text><ellipse cx="235.0" cy="420.7" rx="49.3" ry="22.0" fill="#79c969" stroke="#efffdc" stroke-width="1" opacity=".92" transform="rotate(-14.4 235.0 420.7)"/><circle cx="235.0" cy="420.7" r="5.1" fill="#2f5a30" opacity=".55"/><ellipse cx="872.5" cy="503.7" rx="44.8" ry="20.0" fill="#79c969" stroke="#efffdc" stroke-width="1" opacity=".92" transform="rotate(4.1 872.5 503.7)"/><ellipse cx="228.2" cy="563.9" rx="48.3" ry="21.5" fill="#79c969" stroke="#efffdc" stroke-width="1" opacity=".92" transform="rotate(18.3 228.2 563.9)"/><circle cx="228.2" cy="563.9" r="5.0" fill="#2f5a30" opacity=".55"/><text x="1020" y="110" fill="#ffd060" font-size="30" text-anchor="middle">⚓</text><text x="70" y="715" fill="#ffd060" font-size="15">Ships 10 enemy / 6 allied · Islands 6 · OVERCAST · Ground 265% INF / 243% TANKS</text></svg>