<svg xmlns="http://www.w3.org/2000/svg" viewBox="0 0 1100 760"><defs><style>text{font-family:Segoe UI,Arial,sans-serif}.title{font-weight:800}</style><linearGradient id="sea" x1="0" y1="0" x2="0" y2="1"><stop offset="0" stop-color="#123d57"/><stop offset="1" stop-color="#071d30"/></linearGradient></defs><rect width="100%" height="100%" fill="#06101a"/><rect x="45" y="70" width="1010" height="605" rx="20" fill="url(#sea)" stroke="#2a5e7f"/><text x="550" y="36" fill="#f4fbff" font-size="25" text-anchor="middle" class="title">26. The Crucible</text><text x="550" y="60" fill="#8fb6cc" font-size="13" text-anchor="middle">Everything at once — fog, fleets and flagships.</text><line x1="550" y1="120.81673306772907" x2="550" y2="629.183266932271" stroke="#eaf7ff" stroke-opacity=".18" stroke-dasharray="9 10" stroke-width="3"/><ellipse cx="550.0" cy="113.9" rx="34.8" ry="25.2" fill="#ff766d" stroke="#efffdc" stroke-width="2" opacity=".92" transform="rotate(-18.8 550.0 113.9)"/><rect x="516.0" y="105.9" width="68" height="16" rx="8" fill="#cc332d" stroke="#fff" stroke-width="1"/><text x="550.0" y="153.1" fill="#d7edf7" font-size="10" text-anchor="middle">Northwatch</text><ellipse cx="550.0" cy="636.1" rx="33.5" ry="24.2" fill="#65d6ff" stroke="#efffdc" stroke-width="2" opacity=".92" transform="rotate(28.8 550.0 636.1)"/><rect x="516.0" y="628.1" width="68" height="16" rx="8" fill="#128dcc" stroke="#fff" stroke-width="1"/><text x="550.0" y="674.3" fill="#d7edf7" font-size="10" text-anchor="middle">Southhaven</text><ellipse cx="413.4" cy="176.9" rx="35.5" ry="15.8" fill="#cf755f" stroke="#efffdc" stroke-width="1" opacity=".92" transform="rotate(-19.4 413.4 176.9)"/><ellipse cx="523.9" cy="228.9" rx="36.7" ry="16.4" fill="#cf755f" stroke="#efffdc" stroke-width="1" opacity=".92" transform="rotate(4.3 523.9 228.9)"/><ellipse cx="430.7" cy="344.7" rx="58.8" ry="26.2" fill="#cf755f" stroke="#efffdc" stroke-width="1" opacity=".92" transform="rotate(20.3 430.7 344.7)"/><circle cx="430.7" cy="344.7" r="6.0" fill="#2f5a30" opacity=".55"/><text x="430.7" y="384.9" fill="#d7edf7" font-size="10" text-anchor="middle">Lowtide</text><ellipse cx="479.8" cy="400.0" rx="50.8" ry="22.6" fill="#79c969" stroke="#efffdc" stroke-width="1" opacity=".92" transform="rotate(-32.0 479.8 400.0)"/><circle cx="479.8" cy="400.0" r="5.2" fill="#2f5a30" opacity=".55"/><ellipse cx="461.6" cy="489.2" rx="41.9" ry="18.7" fill="#79c969" stroke="#efffdc" stroke-width="1" opacity=".92" transform="rotate(-13.9 461.6 489.2)"/><ellipse cx="502.8" cy="578.5" rx="59.1" ry="26.4" fill="#79c969" stroke="#efffdc" stroke-width="1" opacity=".92" transform="rotate(10.7 502.8 578.5)"/><circle cx="502.8" cy="578.5" r="6.1" fill="#2f5a30" opacity=".55"/><text x="502.8" y="618.8" fill="#d7edf7" font-size="10" text-anchor="middle">Skull Reef</text><text x="1020" y="110" fill="#ffd060" font-size="30" text-anchor="middle">⚓</text><text x="70" y="715" fill="#ffd060" font-size="15">Ships 11 enemy / 5 allied · Islands 6 · FOG · Ground 275% INF / 253% TANKS</text></svg>