<svg xmlns="http://www.w3.org/2000/svg" viewBox="0 0 1100 760"><defs><style>text{font-family:Segoe UI,Arial,sans-serif}.title{font-weight:800}</style><linearGradient id="sea" x1="0" y1="0" x2="0" y2="1"><stop offset="0" stop-color="#123d57"/><stop offset="1" stop-color="#071d30"/></linearGradient></defs><rect width="100%" height="100%" fill="#06101a"/><rect x="45" y="70" width="1010" height="605" rx="20" fill="url(#sea)" stroke="#2a5e7f"/><text x="550" y="36" fill="#f4fbff" font-size="25" text-anchor="middle" class="title">28. Endless Horizon</text><text x="550" y="60" fill="#8fb6cc" font-size="13" text-anchor="middle">A vast open theater — the longest sail to the guns.</text><line x1="551.8390804597701" y1="114.8671096345515" x2="551.8390804597701" y2="635.1328903654486" stroke="#eaf7ff" stroke-opacity=".18" stroke-dasharray="9 10" stroke-width="3"/><ellipse cx="551.8" cy="109.1" rx="34.7" ry="25.1" fill="#ff766d" stroke="#efffdc" stroke-width="2" opacity=".92" transform="rotate(30.2 551.8 109.1)"/><rect x="517.8" y="101.1" width="68" height="16" rx="8" fill="#cc332d" stroke="#fff" stroke-width="1"/><text x="551.8" y="148.2" fill="#d7edf7" font-size="10" text-anchor="middle">Northwatch</text><ellipse cx="551.8" cy="640.9" rx="33.3" ry="24.1" fill="#65d6ff" stroke="#efffdc" stroke-width="2" opacity=".92" transform="rotate(33.8 551.8 640.9)"/><rect x="517.8" y="632.9" width="68" height="16" rx="8" fill="#128dcc" stroke="#fff" stroke-width="1"/><text x="551.8" y="679.1" fill="#d7edf7" font-size="10" text-anchor="middle">Southhaven</text><ellipse cx="119.7" cy="249.8" rx="48.3" ry="21.5" fill="#cf755f" stroke="#efffdc" stroke-width="1" opacity=".92" transform="rotate(21.2 119.7 249.8)"/><circle cx="119.7" cy="249.8" r="5.0" fill="#2f5a30" opacity=".55"/><ellipse cx="979.4" cy="273.8" rx="45.1" ry="20.1" fill="#cf755f" stroke="#efffdc" stroke-width="1" opacity=".92" transform="rotate(-18.8 979.4 273.8)"/><ellipse cx="230.0" cy="402.0" rx="40.2" ry="17.9" fill="#79c969" stroke="#efffdc" stroke-width="1" opacity=".92" transform="rotate(4.3 230.0 402.0)"/><ellipse cx="908.6" cy="420.3" rx="41.8" ry="18.6" fill="#79c969" stroke="#efffdc" stroke-width="1" opacity=".92" transform="rotate(13.0 908.6 420.3)"/><ellipse cx="349.5" cy="495.4" rx="45.1" ry="20.1" fill="#79c969" stroke="#efffdc" stroke-width="1" opacity=".92" transform="rotate(-27.5 349.5 495.4)"/><ellipse cx="768.9" cy="524.3" rx="41.8" ry="18.6" fill="#79c969" stroke="#efffdc" stroke-width="1" opacity=".92" transform="rotate(25.9 768.9 524.3)"/><ellipse cx="551.8" cy="408.7" rx="35.4" ry="15.8" fill="#79c969" stroke="#efffdc" stroke-width="1" opacity=".92" transform="rotate(-28.9 551.8 408.7)"/><text x="1020" y="110" fill="#ffd060" font-size="30" text-anchor="middle">⚓</text><text x="70" y="715" fill="#ffd060" font-size="15">Ships 10 enemy / 5 allied · Islands 7 · CLEAR · Ground 294% INF / 271% TANKS</text></svg>