<svg xmlns="http://www.w3.org/2000/svg" viewBox="0 0 1100 760"><defs><style>text{font-family:Segoe UI,Arial,sans-serif}.title{font-weight:800}</style><linearGradient id="sea" x1="0" y1="0" x2="0" y2="1"><stop offset="0" stop-color="#123d57"/><stop offset="1" stop-color="#071d30"/></linearGradient></defs><rect width="100%" height="100%" fill="#06101a"/><rect x="45" y="70" width="1010" height="605" rx="20" fill="url(#sea)" stroke="#2a5e7f"/><text x="550" y="36" fill="#f4fbff" font-size="25" text-anchor="middle" class="title">29. The Final Blockade</text><text x="550" y="60" fill="#8fb6cc" font-size="13" text-anchor="middle">The enemy throws its whole navy at your line.</text><line x1="550" y1="118.17343173431735" x2="550" y2="631.8265682656827" stroke="#eaf7ff" stroke-opacity=".18" stroke-dasharray="9 10" stroke-width="3"/><ellipse cx="550.0" cy="111.8" rx="34.8" ry="25.2" fill="#ff766d" stroke="#efffdc" stroke-width="2" opacity=".92" transform="rotate(-1.0 550.0 111.8)"/><rect x="516.0" y="103.8" width="68" height="16" rx="8" fill="#cc332d" stroke="#fff" stroke-width="1"/><text x="550.0" y="151.0" fill="#d7edf7" font-size="10" text-anchor="middle">Northwatch</text><ellipse cx="550.0" cy="638.2" rx="33.5" ry="24.2" fill="#65d6ff" stroke="#efffdc" stroke-width="2" opacity=".92" transform="rotate(-13.0 550.0 638.2)"/><rect x="516.0" y="630.2" width="68" height="16" rx="8" fill="#128dcc" stroke="#fff" stroke-width="1"/><text x="550.0" y="676.5" fill="#d7edf7" font-size="10" text-anchor="middle">Southhaven</text><ellipse cx="901.6" cy="172.4" rx="33.5" ry="14.9" fill="#cf755f" stroke="#efffdc" stroke-width="1" opacity=".92" transform="rotate(-18.1 901.6 172.4)"/><ellipse cx="286.8" cy="262.9" rx="42.5" ry="18.9" fill="#cf755f" stroke="#efffdc" stroke-width="1" opacity=".92" transform="rotate(7.2 286.8 262.9)"/><ellipse cx="835.4" cy="336.3" rx="42.2" ry="18.8" fill="#cf755f" stroke="#efffdc" stroke-width="1" opacity=".92" transform="rotate(14.5 835.4 336.3)"/><ellipse cx="268.2" cy="422.7" rx="57.3" ry="25.5" fill="#79c969" stroke="#efffdc" stroke-width="1" opacity=".92" transform="rotate(-25.9 268.2 422.7)"/><circle cx="268.2" cy="422.7" r="5.9" fill="#2f5a30" opacity=".55"/><text x="268.2" y="462.2" fill="#d7edf7" font-size="10" text-anchor="middle">Pelican</text><ellipse cx="903.2" cy="500.4" rx="37.0" ry="16.5" fill="#79c969" stroke="#efffdc" stroke-width="1" opacity=".92" transform="rotate(-8.3 903.2 500.4)"/><ellipse cx="184.3" cy="576.6" rx="34.7" ry="15.5" fill="#79c969" stroke="#efffdc" stroke-width="1" opacity=".92" transform="rotate(2.4 184.3 576.6)"/><text x="1020" y="110" fill="#ffd060" font-size="30" text-anchor="middle">⚓</text><text x="70" y="715" fill="#ffd060" font-size="15">Ships 12 enemy / 6 allied · Islands 6 · OVERCAST · Ground 300% INF / 280% TANKS</text></svg>