<svg xmlns="http://www.w3.org/2000/svg" viewBox="0 0 1100 760"><defs><style>text{font-family:Segoe UI,Arial,sans-serif}.title{font-weight:800}</style><linearGradient id="sea" x1="0" y1="0" x2="0" y2="1"><stop offset="0" stop-color="#123d57"/><stop offset="1" stop-color="#071d30"/></linearGradient></defs><rect width="100%" height="100%" fill="#06101a"/><rect x="45" y="70" width="1010" height="605" rx="20" fill="url(#sea)" stroke="#2a5e7f"/><text x="550" y="36" fill="#f4fbff" font-size="25" text-anchor="middle" class="title">30. Ragnarök Reef</text><text x="550" y="60" fill="#8fb6cc" font-size="13" text-anchor="middle">Night, storm, and the full enemy fleet. No mercy.</text><line x1="550" y1="118.17343173431735" x2="550" y2="631.8265682656827" stroke="#eaf7ff" stroke-opacity=".18" stroke-dasharray="9 10" stroke-width="3"/><ellipse cx="550.0" cy="111.8" rx="34.8" ry="25.2" fill="#ff766d" stroke="#efffdc" stroke-width="2" opacity=".92" transform="rotate(30.0 550.0 111.8)"/><rect x="516.0" y="103.8" width="68" height="16" rx="8" fill="#cc332d" stroke="#fff" stroke-width="1"/><text x="550.0" y="151.0" fill="#d7edf7" font-size="10" text-anchor="middle">Northwatch</text><ellipse cx="550.0" cy="638.2" rx="33.5" ry="24.2" fill="#65d6ff" stroke="#efffdc" stroke-width="2" opacity=".92" transform="rotate(18.0 550.0 638.2)"/><rect x="516.0" y="630.2" width="68" height="16" rx="8" fill="#128dcc" stroke="#fff" stroke-width="1"/><text x="550.0" y="676.5" fill="#d7edf7" font-size="10" text-anchor="middle">Southhaven</text><ellipse cx="356.2" cy="276.5" rx="63.0" ry="28.1" fill="#cf755f" stroke="#efffdc" stroke-width="1" opacity=".92" transform="rotate(-20.9 356.2 276.5)"/><circle cx="356.2" cy="276.5" r="6.5" fill="#2f5a30" opacity=".55"/><text x="356.2" y="318.6" fill="#d7edf7" font-size="10" text-anchor="middle">Ragnar West</text><ellipse cx="725.4" cy="289.4" rx="61.4" ry="27.4" fill="#cf755f" stroke="#efffdc" stroke-width="1" opacity=".92" transform="rotate(22.2 725.4 289.4)"/><circle cx="725.4" cy="289.4" r="6.3" fill="#2f5a30" opacity=".55"/><text x="725.4" y="330.8" fill="#d7edf7" font-size="10" text-anchor="middle">Ragnar East</text><ellipse cx="454.0" cy="336.5" rx="67.8" ry="30.2" fill="#cf755f" stroke="#efffdc" stroke-width="1" opacity=".92" transform="rotate(4.2 454.0 336.5)"/><circle cx="454.0" cy="336.5" r="7.0" fill="#2f5a30" opacity=".55"/><text x="454.0" y="380.7" fill="#d7edf7" font-size="10" text-anchor="middle">Thunder One</text><ellipse cx="646.0" cy="363.2" rx="64.6" ry="28.8" fill="#cf755f" stroke="#efffdc" stroke-width="1" opacity=".92" transform="rotate(31.5 646.0 363.2)"/><circle cx="646.0" cy="363.2" r="6.6" fill="#2f5a30" opacity=".55"/><text x="646.0" y="406.0" fill="#d7edf7" font-size="10" text-anchor="middle">Thunder Two</text><ellipse cx="437.4" cy="416.7" rx="67.8" ry="30.2" fill="#79c969" stroke="#efffdc" stroke-width="1" opacity=".92" transform="rotate(21.9 437.4 416.7)"/><circle cx="437.4" cy="416.7" r="7.0" fill="#2f5a30" opacity=".55"/><text x="437.4" y="461.0" fill="#d7edf7" font-size="10" text-anchor="middle">Fire Reef</text><ellipse cx="671.8" cy="443.5" rx="61.4" ry="27.4" fill="#79c969" stroke="#efffdc" stroke-width="1" opacity=".92" transform="rotate(-16.2 671.8 443.5)"/><circle cx="671.8" cy="443.5" r="6.3" fill="#2f5a30" opacity=".55"/><text x="671.8" y="484.8" fill="#d7edf7" font-size="10" text-anchor="middle">Doom Cay</text><ellipse cx="514.9" cy="476.7" rx="58.2" ry="25.9" fill="#79c969" stroke="#efffdc" stroke-width="1" opacity=".92" transform="rotate(-25.1 514.9 476.7)"/><circle cx="514.9" cy="476.7" r="6.0" fill="#2f5a30" opacity=".55"/><text x="514.9" y="516.6" fill="#d7edf7" font-size="10" text-anchor="middle">Last Flame</text><ellipse cx="598.0" cy="498.1" rx="53.3" ry="23.8" fill="#79c969" stroke="#efffdc" stroke-width="1" opacity=".92" transform="rotate(-10.9 598.0 498.1)"/><circle cx="598.0" cy="498.1" r="5.5" fill="#2f5a30" opacity=".55"/><text x="598.0" y="535.8" fill="#d7edf7" font-size="10" text-anchor="middle">Ash Gate</text><text x="1020" y="110" fill="#ffd060" font-size="30" text-anchor="middle">⚓</text><text x="70" y="715" fill="#ffd060" font-size="15">Ships 12 enemy / 6 allied · Islands 8 · STORM · Ground 300% INF / 300% TANKS</text></svg>