<svg xmlns="http://www.w3.org/2000/svg" viewBox="0 0 1100 760"><defs><style>text{font-family:Segoe UI,Arial,sans-serif}.title{font-weight:800}</style><linearGradient id="sea" x1="0" y1="0" x2="0" y2="1"><stop offset="0" stop-color="#123d57"/><stop offset="1" stop-color="#071d30"/></linearGradient></defs><rect width="100%" height="100%" fill="#06101a"/><rect x="45" y="70" width="1010" height="605" rx="20" fill="url(#sea)" stroke="#2a5e7f"/><text x="550" y="36" fill="#f4fbff" font-size="25" text-anchor="middle" class="title">31. The Last Tide</text><text x="550" y="60" fill="#8fb6cc" font-size="13" text-anchor="middle">Every gun. Every ship. This is where the war ends.</text><line x1="550" y1="116.99288256227759" x2="550" y2="633.0071174377224" stroke="#eaf7ff" stroke-opacity=".18" stroke-dasharray="9 10" stroke-width="3"/><ellipse cx="550.0" cy="110.8" rx="34.8" ry="25.2" fill="#ff766d" stroke="#efffdc" stroke-width="2" opacity=".92" transform="rotate(-11.6 550.0 110.8)"/><rect x="516.0" y="102.8" width="68" height="16" rx="8" fill="#cc332d" stroke="#fff" stroke-width="1"/><text x="550.0" y="150.0" fill="#d7edf7" font-size="10" text-anchor="middle">Northwatch</text><ellipse cx="550.0" cy="639.2" rx="33.5" ry="24.2" fill="#65d6ff" stroke="#efffdc" stroke-width="2" opacity=".92" transform="rotate(-18.4 550.0 639.2)"/><rect x="516.0" y="631.2" width="68" height="16" rx="8" fill="#128dcc" stroke="#fff" stroke-width="1"/><text x="550.0" y="677.4" fill="#d7edf7" font-size="10" text-anchor="middle">Southhaven</text><ellipse cx="374.6" cy="283.1" rx="67.8" ry="30.2" fill="#cf755f" stroke="#efffdc" stroke-width="1" opacity=".92" transform="rotate(12.9 374.6 283.1)"/><circle cx="374.6" cy="283.1" r="7.0" fill="#2f5a30" opacity=".55"/><text x="374.6" y="327.4" fill="#d7edf7" font-size="10" text-anchor="middle">Final West</text><ellipse cx="725.4" cy="297.6" rx="67.8" ry="30.2" fill="#cf755f" stroke="#efffdc" stroke-width="1" opacity=".92" transform="rotate(-15.5 725.4 297.6)"/><circle cx="725.4" cy="297.6" r="7.0" fill="#2f5a30" opacity=".55"/><text x="725.4" y="341.8" fill="#d7edf7" font-size="10" text-anchor="middle">Final East</text><ellipse cx="474.3" cy="342.0" rx="84.0" ry="37.4" fill="#cf755f" stroke="#efffdc" stroke-width="1" opacity=".92" transform="rotate(-31.5 474.3 342.0)"/><circle cx="474.3" cy="342.0" r="8.6" fill="#2f5a30" opacity=".55"/><text x="474.3" y="393.4" fill="#d7edf7" font-size="10" text-anchor="middle">Iron Teeth</text><ellipse cx="625.7" cy="368.8" rx="84.0" ry="37.4" fill="#cf755f" stroke="#efffdc" stroke-width="1" opacity=".92" transform="rotate(-8.4 625.7 368.8)"/><circle cx="625.7" cy="368.8" r="8.6" fill="#2f5a30" opacity=".55"/><text x="625.7" y="420.2" fill="#d7edf7" font-size="10" text-anchor="middle">Tide Breaker</text><ellipse cx="461.4" cy="422.5" rx="77.5" ry="34.6" fill="#79c969" stroke="#efffdc" stroke-width="1" opacity=".92" transform="rotate(-12.6 461.4 422.5)"/><circle cx="461.4" cy="422.5" r="8.0" fill="#2f5a30" opacity=".55"/><text x="461.4" y="471.0" fill="#d7edf7" font-size="10" text-anchor="middle">Last Harbor</text><ellipse cx="638.6" cy="454.5" rx="71.1" ry="31.7" fill="#79c969" stroke="#efffdc" stroke-width="1" opacity=".92" transform="rotate(14.6 638.6 454.5)"/><circle cx="638.6" cy="454.5" r="7.3" fill="#2f5a30" opacity=".55"/><text x="638.6" y="500.1" fill="#d7edf7" font-size="10" text-anchor="middle">Victory Reef</text><text x="1020" y="110" fill="#ffd060" font-size="30" text-anchor="middle">⚓</text><text x="70" y="715" fill="#ffd060" font-size="15">Ships 12 enemy / 6 allied · Islands 6 · FOG · Ground 300% INF / 300% TANKS</text></svg>